<ttFont>
<head>
    <!-- Most of this table will be recalculated by the compiler -->
    <tableVersion value="1.0"/>
    <fontRevision value="3.01"/>
    <checkSumAdjustment value="0x2569e23e"/>
    <magicNumber value="0x5f0f3cf5"/>
    <flags value="00000000 00000011"/>
    <unitsPerEm value="1000"/>
    <created value="Mon Aug 14 17:39:56 2017"/>
    <modified value="Mon Aug 14 17:39:56 2017"/>
    <xMin value="-563"/>
    <yMin value="-606"/>
    <xMax value="2477"/>
    <yMax value="1108"/>
    <macStyle value="00000000 00000001"/>
    <lowestRecPPEM value="3"/>
    <fontDirectionHint value="2"/>
    <indexToLocFormat value="0"/>
    <glyphDataFormat value="0"/>
  </head>
          <CharString index="0">
            -107 callgsubr
            151 return
          </CharString>
          <CharString index="1">
            -88 callsubr
            -141 -87 -87 -123 -13 1 -13 1 -13 hvcurveto
            184 callgsubr
            0 11 12 vvcurveto
            48 25 31 45 45 25 170 callgsubr
            -88 vhcurveto
            -139 -192 hlineto
            -143 89 -91 151 135 86 79 135 vhcurveto
            return
          </CharString>
          <CharString index="2">
            -60 -41 40 62 60 44 40 58 66 35 -47 -53 -51 -36 -51 -66 hvcurveto
            return
          </CharString>
          <CharString index="3">
            rmoveto
            -105 callsubr
            return
          </CharString>
          <CharString index="4">
            2 callgsubr
            227 callsubr
            -57 -35 -40 -54 -10 -11 1 3 -11 vhcurveto
            -121 vlineto
            -7 24 25 -3 25 hhcurveto
            120 86 85 147 126 -75 99 -127 -69 -51 -27 -42 -31 hvcurveto
            147 vlineto
            return
          </CharString>
          <CharString index="5">
            202 callsubr
            -47 -49 -34 -33 -49 -50 -35 33 48 vhcurveto
            return
          </CharString>
          <CharString index="6">
            -97 callsubr
            115 callsubr
            return
          </CharString>
          <CharString index="7">
            52 -40 41 -51 -51 -40 -41 -52 -50 40 -40 51 51 40 40 50 vhcurveto
            return
          </CharString>
          <CharString index="8">
            -131 310 -93 callsubr
            return
          </CharString>
          <CharString index="9">
            132 callgsubr
            63 25 55 return
          </CharString>
          <CharString index="10">
            5 0 8 -1 9 vhcurveto
            -151 -13 hlineto
            -40 -22 -31 -41 -45 return
          </CharString>
          <CharString index="11">
            -38 callgsubr
            43 -11 34 -16 27 hvcurveto
            return
          </CharString>
          <CharString index="12">
            rmoveto
            -67 -31 49 69 hvcurveto
            199 197 -208 vlineto
            -59 -33 -50 -66 vhcurveto
            return
          </CharString>
          <CharString index="13">
            -46 callsubr
            31 -44 -61 return
          </CharString>
          <CharString index="14">
            -232 vlineto
            -101 callgsubr
            return
          </CharString>
          <CharString index="15">
            177 callgsubr
            146 80 70 108 132 -104 43 -103 hvcurveto
            -45 hlineto
            -32 -27 12 34 35 33 11 32 hvcurveto
            return
          </CharString>
          <CharString index="16">
            137 vlineto
            -1 -10 -11 -1 -6 hhcurveto
            -64 -43 return
          </CharString>
          <CharString index="17">
            -74 -33 52 74 hvcurveto
            191 214 -200 vlineto
            -64 -36 -53 -71 vhcurveto
            362 0 callsubr
            return
          </CharString>
          <CharString index="18">
            rmoveto
            -67 -46 45 66 65 47 45 66 74 39 -52 -58 -56 -39 -55 -74 hvcurveto
            return
          </CharString>
          <CharString index="19">
            18 -153 -16 vlineto
            -47 -26 -34 -46 -58 -20 227 callgsubr
            40 vlineto
            151 122 73 229 callgsubr
            -93 80 -136 return
          </CharString>
          <CharString index="20">
            58 55 299 rmoveto
            -206 122 -100 167 167 131 100 206 vhcurveto
            408 -171 -408 vlineto
            -93 -42 -51 -81 -81 -42 219 callsubr
            -170 vlineto
            return
          </CharString>
          <CharString index="21">
            -123 -102 -65 -76 callsubr
            return
          </CharString>
          <CharString index="22">
            133 -52 105 -156 -137 -69 -83 -109 -56 callsubr
            -63 vlineto
            -124 -102 -65 -136 164 callgsubr
            hvcurveto
            return
          </CharString>
          <CharString index="23">
            rmoveto
            -106 callsubr
            endchar
          </CharString>
          <CharString index="24">
            rmoveto
            86 51 -63 -73 -19 -4 -19 -7 -17 hvcurveto
            -213 163 rlineto
            18 24 30 10 33 hhcurveto
            return
          </CharString>
          <CharString index="25">
            154 314 -146 vlineto
            -59 -41 -33 -49 -60 -38 39 60 68 50 39 72 vhcurveto
            179 214 return
          </CharString>
          <CharString index="26">
            rmoveto
            -127 -55 39 64 44 30 36 66 hvcurveto
            17 126 -20 hlineto
            -59 -21 32 50 hvcurveto
            64 274 -80 vlineto
            -70 -20 -51 -53 -94 vvcurveto
            -37 6 -33 8 -24 vhcurveto
            189 callsubr
            return
          </CharString>
          <CharString index="27">
            -131 243 -76 vlineto
            254 callgsubr
            108 77 53 70 44 vhcurveto
            -4 21 23 -3 23 hhcurveto
            return
          </CharString>
          <CharString index="28">
            -89 callsubr
            364 552 rmoveto
            return
          </CharString>
          <CharString index="29">
            -100 callgsubr
            65 59 31 -44 -61 return
          </CharString>
          <CharString index="30">
            -84 -46 55 74 hvcurveto
            36 vlineto
            96 12 67 71 134 vvcurveto
            98 return
          </CharString>
          <CharString index="31">
            -136 -72 callsubr
            hvcurveto
            47 return
          </CharString>
          <CharString index="32">
            609 -83 callgsubr
            return
          </CharString>
          <CharString index="33">
            rmoveto
            54 35 34 55 55 34 -34 -54 -55 -34 -34 -55 -55 -35 34 55 vhcurveto
            return
          </CharString>
          <CharString index="34">
            35 hlineto
            51 36 -18 -45 -37 -30 -24 -52 -52 -42 25 50 -2 hvcurveto
            -156 hlineto
            return
          </CharString>
          <CharString index="35">
            -123 87 -66 callgsubr
            return
          </CharString>
          <CharString index="36">
            41 31 31 40 42 -31 31 -41 return
          </CharString>
          <CharString index="37">
            -102 499 707 rmoveto
            -440 -707 440 137 -269 157 239 129 -239 148 269 hlineto
            return
          </CharString>
          <CharString index="38">
            -57 callsubr
            -49 vhcurveto
            return
          </CharString>
          <CharString index="39">
            rmoveto
            -155 86 rlineto
            -113 vlineto
            155 -84 155 84 rlineto
            113 vlineto
            endchar
          </CharString>
          <CharString index="40">
            -56 callgsubr
            133 79 77 119 -101 callsubr
            98 return
          </CharString>
          <CharString index="41" raw="1">
            f40a73f7 16f74c0a 0b 
          </CharString>
          <CharString index="42">
            43 124 -18 hlineto
            -85 -41 46 71 75 53 40 80 hvcurveto
            return
          </CharString>
          <CharString index="43">
            127 43 -11 34 -16 27 return
          </CharString>
          <CharString index="44">
            rmoveto
            -155 84 -155 -84 rlineto
            -113 vlineto
            155 86 155 -86 rlineto
            return
          </CharString>
          <CharString index="45">
            -73 -32 -52 -94 -5 vhcurveto
            54 -42 -73 34 -109 165 callgsubr
            95 29 -57 -39 hvcurveto
            -51 154 callsubr
            vhcurveto
            22 -152 -13 vlineto
            -40 -21 233 callgsubr
            93 return
          </CharString>
          <CharString index="46">
            -105 callgsubr
            65 return
          </CharString>
          <CharString index="47">
            rmoveto
            42 28 21 39 47 28 -30 -46 6 vhcurveto
            185 hlineto
            130 -12 -95 80 -159 hhcurveto
            -145 -105 -75 -129 hvcurveto
            -254 346 68 -135 vvcurveto
            -39 -26 -27 -45 -51 -35 32 54 -5 vhcurveto
            -182 hlineto
            -142 10 115 -78 155 hhcurveto
            163 84 96 110 hvcurveto
            254 -346 -61 129 vvcurveto
            return
          </CharString>
          <CharString index="48">
            142 callgsubr
            hvcurveto
            -99 callgsubr
            return
          </CharString>
          <CharString index="49">
            vvcurveto
            -172 117 -73 143 vhcurveto
            -49 callgsubr
            return
          </CharString>
          <CharString index="50">
            49 -16 callsubr
            -35 return
          </CharString>
          <CharString index="51">
            -75 callgsubr
            -75 return
          </CharString>
          <CharString index="52">
            9 callsubr
            -128 -82 -83 -117 -12 hvcurveto
            -1 -3 rlineto
            -85 -15 -61 -41 -83 hhcurveto
            -58 -59 callsubr
            return
          </CharString>
          <CharString index="53">
            rmoveto
            -213 317 81 -104 vvcurveto
            -29 -20 -20 -39 -55 -38 25 49 -6 vhcurveto
            -165 hlineto
            -124 20 93 -69 151 hhcurveto
            136 81 69 95 hvcurveto
            215 -320 -73 98 vvcurveto
            30 20 18 39 49 35 -27 -46 9 vhcurveto
            160 hlineto
            111 -20 -82 82 -147 hhcurveto
            -143 -75 -72 -96 hvcurveto
            return
          </CharString>
          <CharString index="54">
            243 callsubr
            46 40 52 callgsubr
            return
          </CharString>
          <CharString index="55">
            48 -20 callsubr
            return
          </CharString>
          <CharString index="56">
            412 200 hmoveto
            212 hlineto
            114 473 113 -473 rlineto
            212 hlineto
            169 707 rlineto
            -185 hlineto
            -92 -512 -124 512 rlineto
            -187 hlineto
            -124 -512 -91 512 rlineto
            -186 hlineto
            return
          </CharString>
          <CharString index="57">
            -155 -129 -74 -172 238 callsubr
            53 40 80 hvcurveto
            return
          </CharString>
          <CharString index="58">
            rmoveto
            -40 -31 266 callgsubr
            50 114 callgsubr
            -49 vhcurveto
            219 95 rmoveto
            47 return
          </CharString>
          <CharString index="59">
            rmoveto
            38 callsubr
            -32 -31 -42 -40 32 268 callsubr
          </CharString>
          <CharString index="60">
            vvcurveto
            117 -93 59 -113 -129 -94 -79 -115 -89 53 -51 62 -23 vhcurveto
            -74 -37 -69 -50 -101 vvcurveto
            -103 76 -69 109 62 44 27 28 21 vhcurveto
            -150 vlineto
            return
          </CharString>
          <CharString index="61">
            -72 callgsubr
            65 59 return
          </CharString>
          <CharString index="62">
            239 147 hmoveto
            191 hlineto
            102 374 101 -374 rlineto
            191 hlineto
            143 558 rlineto
            -159 hlineto
            -74 -403 -107 403 rlineto
            -182 hlineto
            -104 -402 -74 402 rlineto
            -171 hlineto
            return
          </CharString>
          <CharString index="63">
            rmoveto
            25 -18 17 -25 -25 -18 -17 -25 -25 18 -17 25 25 18 17 25 vhcurveto
            return
          </CharString>
          <CharString index="64">
            65 28 -39 -41 -45 -28 -31 -48 -48 -30 34 42 hvcurveto
            -147 hlineto
            -126 94 -85 141 125 83 76 119 vhcurveto
            3 0 3 3 vvcurveto
            98 -263 return
          </CharString>
          <CharString index="65">
            -153 -113 -84 -154 150 callsubr
            hvcurveto
            -148 -82 callsubr
            return
          </CharString>
          <CharString index="66">
            158 609 return
          </CharString>
          <CharString index="67">
            85 51 -64 -72 -19 -4 -18 -7 -17 hvcurveto
            -212 162 rlineto
            18 23 31 10 33 hhcurveto
            return
          </CharString>
          <CharString index="68">
            vvcurveto
            74 146 -15 callsubr
            return
          </CharString>
          <CharString index="69">
            -131 98 -609 158 return
          </CharString>
          <CharString index="70">
            -131 816 -66 vlineto
            -70 -29 -52 -88 -8 vhcurveto
            59 -46 -83 24 -97 hhcurveto
            -169 hlineto
            -96 callsubr
            16 hlineto
            79 29 -39 -43 hvcurveto
            1 -74 hlineto
            -78 callgsubr
            -101 callsubr
            98 return
          </CharString>
          <CharString index="71">
            vhcurveto
            414 -4 callsubr
            return
          </CharString>
          <CharString index="72">
            523 rmoveto
            -65 -48 -27 -40 -28 hvcurveto
            153 337 -51 vlineto
            -52 -13 -40 -34 -23 vhcurveto
            -30 48 -48 33 -71 -1 rrcurveto
            -394 -327 -104 callsubr
            733 17 rmoveto
            -94 -54 56 70 167 callsubr
            -60 -68 -98 -36 callsubr
            return
          </CharString>
          <CharString index="73">
            237 callsubr
            -25 -49 -73 -13 vhcurveto
            60 -27 -52 41 -80 hhcurveto
            -394 -321 -104 callsubr
            808 347 rmoveto
            66 return
          </CharString>
          <CharString index="74">
            -92 callsubr
            183 184 hlineto
            endchar
          </CharString>
          <CharString index="75">
            157 609 return
          </CharString>
          <CharString index="76">
            hhcurveto
            -53 -99 57 hlineto
            70 43 -2 -122 73 hvcurveto
            56 -73 -26 1 -94 hhcurveto
            -50 -98 54 hlineto
            return
          </CharString>
          <CharString index="77">
            rmoveto
            72 51 51 76 77 50 -51 -72 -72 -50 -52 -77 -76 -51 52 72 vhcurveto
            return
          </CharString>
          <CharString index="78">
            -17 callgsubr
            endchar
          </CharString>
          <CharString index="79" raw="1">
            f7261dcc c6aa5f4e 0b 
          </CharString>
          <CharString index="80">
            16 32 8 39 43 vvcurveto
            return
          </CharString>
          <CharString index="81">
            -5 231 21 rmoveto
            -131 -287 rlineto
            188 hlineto
            348 824 rlineto
            -189 hlineto
            -125 -342 -134 342 rlineto
            -191 hlineto
            return
          </CharString>
          <CharString index="82">
            143 callsubr
            745 -117 -129 vlineto
            -72 -64 -16 -35 -47 hvcurveto
            51 -38 -64 29 -80 68 callsubr
            1033 480 -83 callgsubr
            -1401 -131 243 -76 vlineto
            172 callsubr
            42 37 8 16 32 hvcurveto
            -92 37 84 -40 106 hhcurveto
            39 124 -17 hlineto
            -85 -42 46 71 75 53 40 81 hvcurveto
            124 87 callgsubr
            endchar
          </CharString>
          <CharString index="83">
            -83 callgsubr
            -600 -131 336 -9 callsubr
            return
          </CharString>
          <CharString index="84">
            239 609 rmoveto
            97 131 -98 hlineto
            return
          </CharString>
          <CharString index="85">
            48 35 35 86 callgsubr
            34 48 vhcurveto
            687 -34 rmoveto
            -86 -52 56 78 -12 hvcurveto
            109 19 53 73 96 141 callsubr
            414 396 rmoveto
            131 return
          </CharString>
          <CharString index="86">
            rmoveto
            -40 -31 25 46 46 35 25 49 114 callgsubr
            -48 vhcurveto
            -592 -65 rmoveto
            -77 callsubr
            630 -144 -62 vlineto
            -51 -44 -11 -22 -35 hvcurveto
            57 -36 -66 32 -85 hhcurveto
            -131 -89 -15 callgsubr
            1196 480 -83 callgsubr
            -1564 -80 callsubr
            51 45 12 24 34 hvcurveto
            -53 35 61 -31 82 hhcurveto
            142 68 50 callgsubr
          </CharString>
          <CharString index="87">
            35 34 50 49 34 return
          </CharString>
          <CharString index="88">
            101 -74 112 55 45 18 32 28 vhcurveto
            93 callsubr
          </CharString>
          <CharString index="89">
            rmoveto
            45 -35 36 -44 -44 -35 -36 -45 -43 35 -35 44 44 35 35 43 vhcurveto
            return
          </CharString>
          <CharString index="90">
            -179 104 -107 137 88 62 44 64 return
          </CharString>
          <CharString index="91">
            hvcurveto
            59 -55 hlineto
            -52 -24 return
          </CharString>
          <CharString index="92">
            267 callgsubr
            -60 0 callgsubr
            return
          </CharString>
          <CharString index="93">
            61 callsubr
            -1293 -131 529 -71 vlineto
            -84 41 -41 53 -13 vhcurveto
            -3 vlineto
            -49 -17 -37 -33 -15 -50 rrcurveto
            -1 hlineto
            -15 -47 -42 -36 -59 -1 rrcurveto
            -58 -1 -47 37 callsubr
            -127 105 -66 124 2 vhcurveto
            65 2 54 21 40 37 return
          </CharString>
          <CharString index="94">
            -82 callsubr
            hlineto
            return
          </CharString>
          <CharString index="95">
            -60 callgsubr
            endchar
          </CharString>
          <CharString index="96">
            39 30 279 rmoveto
            163 callgsubr
            return
          </CharString>
          <CharString index="97">
            706 403 190 callgsubr
            574 -51 vlineto
            -51 -20 -32 -53 -10 vhcurveto
            48 -34 -54 26 -66 hhcurveto
            308 callgsubr
            hvcurveto
            189 callsubr
            545 59 rmoveto
            -95 -49 50 80 -22 hvcurveto
            112 10 66 77 105 vvcurveto
            74 97 callsubr
            -94 -65 -66 -93 -36 callsubr
            -1379 17 callgsubr
            return
          </CharString>
          <CharString index="98">
            -74 -71 vlineto
            -99 -84 -46 -105 -137 121 -25 77 hvcurveto
            -92 callsubr
            183 184 hlineto
            return
          </CharString>
          <CharString index="99">
            -96 61 -52 62 -18 vhcurveto
            -4 vlineto
            -52 -12 -63 -45 -87 vvcurveto
            return
          </CharString>
          <CharString index="100">
            435 750 430 rmoveto
            64 60 -33 -77 -3 hvcurveto
            -246 hlineto
            81 9 56 29 60 hhcurveto
            285 -232 rmoveto
            -181 hlineto
            -43 -12 -38 -27 -59 hhcurveto
            -61 -52 32 88 -7 hvcurveto
            415 hlineto
            3 15 1 14 17 vvcurveto
            161 -95 110 -145 -89 -69 -39 -69 -27 vhcurveto
            101 66 callgsubr
            128 callsubr
            hvcurveto
            -101 170 102 vlineto
            -70 28 68 -39 89 hhcurveto
            123 86 87 118 22 hvcurveto
            -831 81 rmoveto
            87 51 49 71 70 53 -50 -86 -85 -53 -51 -70 -71 -51 49 87 vhcurveto
            return
          </CharString>
          <CharString index="101">
            -74 callsubr
            624 -109 158 callsubr
            -26 -23 -3 -6 -22 hvcurveto
            -904 -131 243 -76 hlineto
            172 callsubr
            35 33 6 11 28 hvcurveto
            -87 31 81 -46 110 hhcurveto
            136 85 79 135 hvcurveto
            304 callsubr
            606 98 134 188 callsubr
          </CharString>
          <CharString index="102">
            -59 callsubr
            -107 -79 -67 -109 -8 callsubr
            -126 return
          </CharString>
          <CharString index="103">
            396 -83 callgsubr
            return
          </CharString>
          <CharString index="104">
            -172 117 -73 143 return
          </CharString>
          <CharString index="105">
            rmoveto
            51 -41 40 -51 -51 -40 -40 -51 -50 40 -41 51 51 41 41 50 vhcurveto
            endchar
          </CharString>
          <CharString index="106">
            vhcurveto
            -137 vlineto
            -1 14 12 0 8 hhcurveto
            return
          </CharString>
          <CharString index="107">
            317 -83 callgsubr
            return
          </CharString>
          <CharString index="108">
            102 vvcurveto
            74 97 callsubr
            -92 return
          </CharString>
          <CharString index="109">
            -2 callgsubr
            -107 -79 -67 -109 -8 callsubr
            return
          </CharString>
          <CharString index="110">
            -129 -108 -70 return
          </CharString>
          <CharString index="111">
            -85 callsubr
            endchar
          </CharString>
          <CharString index="112">
            194 -49 callsubr
            return
          </CharString>
          <CharString index="113">
            -131 814 38 callgsubr
            -53 -44 -15 -27 -35 hvcurveto
            -178 hlineto
            316 callsubr
            -73 -170 119 callgsubr
            73 53 39 80 hvcurveto
            95 hlineto
            -3 -18 -2 -18 -20 vvcurveto
            return
          </CharString>
          <CharString index="114">
            rmoveto
            -135 hlineto
            -52 -31 -43 -74 -74 -30 43 52 vhcurveto
            -135 hlineto
            -122 73 -89 166 166 74 89 122 vhcurveto
            endchar
          </CharString>
          <CharString index="115">
            -53 callsubr
            99 219 callgsubr
            157 -45 vlineto
            -80 -35 -19 -77 vhcurveto
            return
          </CharString>
          <CharString index="116">
            44 -34 -54 26 -68 hhcurveto
            return
          </CharString>
          <CharString index="117">
            -54 542 38 rmoveto
            -137 hlineto
            -29 -11 -31 -29 -50 hhcurveto
            -62 -45 45 72 73 41 51 66 43 26 -20 -18 14 hvcurveto
            -83 -93 rlineto
            139 hlineto
            82 93 rlineto
            90 -15 -91 66 -120 hhcurveto
            -14 -14 -1 -2 -13 hvcurveto
            -18 9 -11 16 19 vvcurveto
            36 29 12 33 vhcurveto
            174 181 128 131 -619 -131 341 204 callsubr
            -52 26 -40 45 -25 hvcurveto
            -58 -40 -36 -66 -86 vvcurveto
            -147 96 -99 150 134 93 73 108 10 vhcurveto
            return
          </CharString>
          <CharString index="118">
            25 551 rmoveto
            -110 72 -58 96 94 72 58 110 110 -72 58 -94 -96 -72 -58 -110 vhcurveto
            166 66 rmoveto
            33 22 -24 -42 -42 -22 -24 -33 -32 -20 24 42 42 20 24 32 hvcurveto
            -64 -617 rmoveto
            165 hlineto
            386 709 rlineto
            -165 hlineto
            -66 -550 rmoveto
            -110 72 -59 94 96 70 59 110 110 -70 58 -96 -94 -72 -58 -110 vhcurveto
            166 66 rmoveto
            32 21 -25 -41 -43 -21 -24 -32 -33 -20 24 43 41 20 25 33 hvcurveto
            return
          </CharString>
          <CharString index="119">
            -144 hlineto
            9 callsubr
            return
          </CharString>
          <CharString index="120">
            rmoveto
            66 153 -180 -177 vlineto
            -27 callsubr
            return
          </CharString>
          <CharString index="121">
            rmoveto
            29 -24 23 -29 -30 -23 -23 -29 -29 23 -24 30 29 24 24 29 vhcurveto
            endchar
          </CharString>
          <CharString index="122">
            171 324 hlineto
            151 -82 89 -127 -87 -65 -43 -65 -31 vhcurveto
            102 183 callgsubr
            296 vlineto
            83 45 44 68 65 43 -43 -76 vhcurveto
            return
          </CharString>
          <CharString index="123">
            -131 95 -47 vlineto
            -83 42 -41 53 -14 vhcurveto
            -3 vlineto
            -55 -16 -52 -50 -78 vvcurveto
            return
          </CharString>
          <CharString index="124">
            rmoveto
            -80 -35 52 82 hvcurveto
            86 vlineto
            212 -150 rlineto
            -39 -11 -31 -31 -55 hhcurveto
            return
          </CharString>
          <CharString index="125">
            609 98 131 return
          </CharString>
          <CharString index="126">
            -21 callgsubr
            -24 -23 -3 -6 -21 hvcurveto
            -737 -131 605 hlineto
            -5 -18 -2 -20 -21 vvcurveto
            252 callgsubr
            vhcurveto
            -45 callgsubr
            -374 hlineto
            3 callsubr
            -144 -135 66 callsubr
            116 hlineto
            -145 24 113 -82 return
          </CharString>
          <CharString index="127">
            -83 callgsubr
            -600 57 callsubr
            4 -80 45 -57 71 -30 -123 -151 rcurveline
            25 callsubr
            -120 146 rlineto
            68 29 36 55 73 vvcurveto
            132 -104 43 -103 vhcurveto
            255 callgsubr
            endchar
          </CharString>
          <CharString index="128">
            6 169 392 rmoveto
            -77 -34 -42 -60 -85 vvcurveto
            -149 122 -79 150 151 121 79 149 85 -42 60 -77 34 vhcurveto
            66 28 36 53 75 vvcurveto
            98 -82 99 -173 -172 -83 -99 -98 -75 36 -53 66 -28 vhcurveto
            153 213 rmoveto
            51 36 -31 -55 -56 -36 -28 -51 -51 -36 28 56 55 37 31 50 hvcurveto
            -286 vmoveto
            61 45 -34 -62 -59 -40 -38 -66 -66 -40 38 59 62 46 34 60 hvcurveto
            endchar
          </CharString>
          <CharString index="129">
            rmoveto
            -40 callsubr
            return
          </CharString>
          <CharString index="130">
            -149 458 558 rmoveto
            -431 -142 236 hlineto
            -240 -281 rlineto
            -135 445 143 -258 vlineto
            248 280 rlineto
            return
          </CharString>
          <CharString index="131">
            13 callsubr
            408 66 -83 callgsubr
            return
          </CharString>
          <CharString index="132">
            159 hlineto
            92 119 92 -119 226 callsubr
            return
          </CharString>
          <CharString index="133">
            538 191 283 -102 callsubr
            641 9 rmoveto
            -90 callsubr
            -1211 144 callgsubr
            return
          </CharString>
          <CharString index="134">
            -119 -131 rlineto
            223 callgsubr
            -102 35 callgsubr
            endchar
          </CharString>
          <CharString index="135">
            31 869 -75 callsubr
            -886 -131 243 -76 vlineto
            -92 -45 -38 -90 vhcurveto
            -25 -127 hlineto
            -181 109 -102 172 108 77 53 70 44 vhcurveto
            -4 21 23 -3 23 111 callsubr
            return
          </CharString>
          <CharString index="136">
            rmoveto
            -96 -53 55 78 -1 hvcurveto
            117 13 45 74 127 callsubr
            return
          </CharString>
          <CharString index="137">
            -95 callsubr
            679 0 callsubr
            return
          </CharString>
          <CharString index="138">
            -131 243 -76 vlineto
            -92 -45 -38 -90 vhcurveto
            -25 -127 hlineto
            -166 96 -97 154 -11 vhcurveto
            -112 -129 rlineto
            -8 168 vlineto
            return
          </CharString>
          <CharString index="139">
            -42 callsubr
            hlineto
            return
          </CharString>
          <CharString index="140">
            202 callgsubr
            76 1 callsubr
            -60 -68 return
          </CharString>
          <CharString index="141">
            -57 -37 -34 -60 -79 vvcurveto
            -140 96 -92 150 134 93 75 114 10 vhcurveto
            return
          </CharString>
          <CharString index="142">
            hhcurveto
            88 267 callsubr
            116 callsubr
          </CharString>
          <CharString index="143">
            -131 339 140 callgsubr
            50 37 -17 -47 -33 -24 -27 -47 -51 -32 28 47 -4 hvcurveto
            -141 -257 149 return
          </CharString>
          <CharString index="144">
            129 callgsubr
            41 124 -369 283 callgsubr
            hlineto
            -31 -29 -17 -41 -47 vvcurveto
            return
          </CharString>
          <CharString index="145">
            -71 callsubr
            -40 return
          </CharString>
          <CharString index="146">
            77 147 -54 hlineto
            -42 -17 15 44 hvcurveto
            208 112 144 -112 137 -171 -137 -75 -144 75 vlineto
            endchar
          </CharString>
          <CharString index="147">
            hhcurveto
            76 callsubr
          </CharString>
          <CharString index="148">
            -57 -26 -35 -46 -42 -24 30 44 -5 vhcurveto
            120 -3 -92 112 -178 -33 callgsubr
            95 71 35 52 46 hvcurveto
            -29 32 46 -17 64 hhcurveto
            return
          </CharString>
          <CharString index="149">
            55 76 -2 hvcurveto
            117 13 return
          </CharString>
          <CharString index="150">
            -11 560 512 rmoveto
            117 -8 -68 107 -159 hhcurveto
            -192 -76 -123 -258 -199 49 -163 224 161 89 100 142 153 -86 81 -130 -73 -59 -34 -54 -23 hvcurveto
            146 -3 30 72 78 hhcurveto
            52 25 -32 -55 9 hvcurveto
            -77 -175 rmoveto
            58 39 -34 -65 -65 -38 -33 -58 -69 -33 44 59 63 48 31 53 hvcurveto
            endchar
          </CharString>
          <CharString index="151">
            rmoveto
            131 -736 -131 339 -74 -74 vlineto
            -99 -84 -46 -105 -137 121 -25 77 hvcurveto
            -92 callsubr
            185 184 hlineto
            endchar
          </CharString>
          <CharString index="152">
            138 callsubr
            endchar
          </CharString>
          <CharString index="153">
            rmoveto
            -40 -30 26 46 45 282 callsubr
            -54 hlineto
            -53 -24 -35 -49 vhcurveto
            return
          </CharString>
          <CharString index="154">
            128 hlineto
            45 8 18 23 36 59 50 -67 88 hhcurveto
            100 75 66 154 24 hvcurveto
            -129 hlineto
            -46 -7 -18 -22 -36 -58 -51 67 -88 hhcurveto
            -100 -74 -66 -154 -25 hvcurveto
            return
          </CharString>
          <CharString index="155">
            rmoveto
            -70 -31 52 74 hvcurveto
            191 712 85 callsubr
            -103 -92 -55 -117 -26 hvcurveto
            -35 -13 -29 -25 -46 hhcurveto
            return
          </CharString>
          <CharString index="156">
            68 54 26 46 34 hvcurveto
            138 callgsubr
          </CharString>
          <CharString index="157">
            -83 callgsubr
            -858 17 callgsubr
            -150 141 -72 199 282 callgsubr
            return
          </CharString>
          <CharString index="158">
            -91 vlineto
            -65 -15 -38 -43 -22 -50 rrcurveto
            return
          </CharString>
          <CharString index="159">
            -131 582 -91 vlineto
            -55 -18 -35 -40 -18 -45 302 callgsubr
            -94 hhcurveto
            -121 -107 -77 -163 -153 91 -101 168 169 callsubr
            hvcurveto
            -91 callsubr
            37 78 155 callsubr
            -29 130 29 vlineto
            63 25 55 65 55 30 -42 -60 return
          </CharString>
          <CharString index="160">
            62 273 callgsubr
            vhcurveto
            159 hlineto
            131 260 callgsubr
            vhcurveto
            148 346 131 -929 -107 callgsubr
            vlineto
            return
          </CharString>
          <CharString index="161">
            rmoveto
            -95 -209 rlineto
            104 hlineto
            122 209 rlineto
            -344 hmoveto
            -75 -209 rlineto
            104 hlineto
            102 209 rlineto
            endchar
          </CharString>
          <CharString index="162">
            -3 callsubr
            hvcurveto
            return
          </CharString>
          <CharString index="163">
            8 23 4 25 27 vvcurveto
            123 -80 59 -87 -72 -44 -39 -46 -20 vhcurveto
            -2 hlineto
            46 -19 -40 39 -71 hhcurveto
            -90 -82 -58 -124 -114 70 -76 126 hvcurveto
            26 107 hlineto
            -2 -7 -9 0 -4 hhcurveto
            -46 -32 26 57 46 23 31 44 46 18 -40 -46 hvcurveto
            -22 101 22 vlineto
            45 18 41 47 40 22 -31 -44 vhcurveto
            return
          </CharString>
          <CharString index="164">
            -131 336 -74 -71 vlineto
            -99 -84 -46 -105 -137 121 -25 77 hvcurveto
            -73 callsubr
            return
          </CharString>
          <CharString index="165">
            -658 rmoveto
            -100 callsubr
            return
          </CharString>
          <CharString index="166">
            321 558 94 rmoveto
            -1 hlineto
            6 6 5 7 4 7 rrcurveto
            -2 11 11 181 callgsubr
            157 70 callsubr
            -994 31 callsubr
            return
          </CharString>
          <CharString index="167">
            170 hlineto
            188 246 rlineto
            0 1 0 1 vvcurveto
            -221 -103 callsubr
            endchar
          </CharString>
          <CharString index="168">
            -81 callsubr
            438 455 -83 callgsubr
            return
          </CharString>
          <CharString index="169">
            4 91 724 rmoveto
            -428 166 vlineto
            29 10 29 23 46 hhcurveto
            58 33 -35 -61 -61 -27 -45 -63 -55 -28 36 42 -6 hvcurveto
            -167 hlineto
            -133 3 98 -93 163 hhcurveto
            160 88 99 152 123 -65 110 -148 -60 -52 -20 -31 -28 hvcurveto
            143 318 150 vlineto
            endchar
          </CharString>
          <CharString index="170">
            46 callgsubr
            -109 -131 98 -609 hlineto
            return
          </CharString>
          <CharString index="171">
            rmoveto
            -66 -47 -26 -38 -28 hvcurveto
            156 398 -66 vlineto
            -65 return
          </CharString>
          <CharString index="172">
            vlineto
            64 -27 153 callgsubr
          </CharString>
          <CharString index="173">
            80 callsubr
            hvcurveto
            return
          </CharString>
          <CharString index="174">
            133 -52 105 -153 -137 -69 -81 -107 -13 2 -14 2 -12 vhcurveto
            153 hlineto
            -3 11 -1 9 10 vvcurveto
            38 22 26 35 42 17 -31 -45 vhcurveto
            return
          </CharString>
          <CharString index="175">
            233 callsubr
            -56 17 -45 29 -34 hvcurveto
            -28 -19 -33 -24 -58 hhcurveto
            return
          </CharString>
          <CharString index="176">
            -181 109 -102 172 return
          </CharString>
          <CharString index="177">
            609 97 131 return
          </CharString>
          <CharString index="178">
            866 351 109 callgsubr
            543 vlineto
            3 11 8 1 9 hhcurveto
            47 26 170 callgsubr
            -88 hvcurveto
            -24 hlineto
            65 -34 -71 37 -91 68 callsubr
            return
          </CharString>
          <CharString index="179">
            rmoveto
            97 59 30 84 vhcurveto
            49 183 hlineto
            -81 -69 -45 -66 -42 hvcurveto
            105 261 callgsubr
            return
          </CharString>
          <CharString index="180">
            65 48 310 callsubr
            return
          </CharString>
          <CharString index="181">
            -89 705 -75 callsubr
            -722 -131 vlineto
            465 -658 rmoveto
            257 292 rlineto
            250 -352 -95 vlineto
            -57 -26 -34 -46 -46 -25 34 57 vhcurveto
            95 -158 -99 vlineto
            -132 78 -93 151 127 77 77 113 13 vhcurveto
            168 hlineto
            -390 -408 rlineto
            return
          </CharString>
          <CharString index="182">
            135 -81 79 -119 308 callgsubr
            vhcurveto
            129 hlineto
            -8 25 -5 27 25 vvcurveto
            52 29 27 34 37 27 -36 -55 -117 -87 -62 -154 -127 -55 39 64 44 30 36 66 vhcurveto
            17 126 -20 hlineto
            -59 -21 32 50 hvcurveto
            64 vlineto
            endchar
          </CharString>
          <CharString index="183">
            142 74 50 callgsubr
          </CharString>
          <CharString index="184">
            259 callsubr
            vhcurveto
            304 callgsubr
            441 -60 callgsubr
            return
          </CharString>
          <CharString index="185">
            vlineto
            -78 callgsubr
            -101 callsubr
            98 return
          </CharString>
          <CharString index="186">
            vlineto
            -129 232 -54 27 -156 1 rrcurveto
            -50 -126 53 hlineto
            87 25 -17 -117 76 hvcurveto
            return
          </CharString>
          <CharString index="187">
            142 callsubr
            65 -64 callsubr
            return
          </CharString>
          <CharString index="188">
            -73 34 8 rmoveto
            504 138 -279 hlineto
            129 80 139 139 149 vvcurveto
            116 -71 93 -161 -137 -115 -78 -181 -8 vhcurveto
            167 hlineto
            79 2 24 36 53 hhcurveto
            49 22 -30 -52 -108 -151 -134 -167 -119 hvcurveto
            endchar
          </CharString>
          <CharString index="189">
            rrcurveto
            88 callsubr
          </CharString>
          <CharString index="190">
            -9 20 -5 20 20 vvcurveto
            43 20 27 39 38 18 -31 -34 -2 vhcurveto
            119 hlineto
            104 9 -52 81 -99 hhcurveto
            -94 -41 -59 -62 -11 hvcurveto
            182 -104 -43 10 -126 -31 callsubr
            return
          </CharString>
          <CharString index="191">
            158 272 vlineto
            71 return
          </CharString>
          <CharString index="192">
            51 callsubr
            -3 hlineto
            -35 callgsubr
            return
          </CharString>
          <CharString index="193">
            -312 78 hmoveto
            171 558 -171 hlineto
            return
          </CharString>
          <CharString index="194">
            vlineto
            92 -30 -82 56 -111 hhcurveto
            -132 -94 -76 -120 -8 hvcurveto
            148 hlineto
            38 10 33 25 44 hhcurveto
            61 32 -46 -52 -56 -32 -45 -61 -43 -35 24 39 -9 hvcurveto
            -148 hlineto
            -120 7 96 -76 131 hhcurveto
            124 88 71 114 19 hvcurveto
            return
          </CharString>
          <CharString index="195">
            34 callsubr
            endchar
          </CharString>
          <CharString index="196">
            237 callsubr
            -24 -49 -74 -13 vhcurveto
            60 -27 -52 41 -80 hhcurveto
            -394 -321 -104 callsubr
            809 347 rmoveto
            66 return
          </CharString>
          <CharString index="197">
            16 callsubr
            -121 return
          </CharString>
          <CharString index="198">
            -84 72 -31 69 vhcurveto
            143 90 -125 hlineto
            -27 -17 11 20 19 17 11 27 hvcurveto
            82 return
          </CharString>
          <CharString index="199">
            99 -67 69 -115 -99 -71 -49 -89 -11 2 -14 2 -13 vhcurveto
            139 callgsubr
          </CharString>
          <CharString index="200">
            51 callgsubr
            endchar
          </CharString>
          <CharString index="201">
            196 callgsubr
            vlineto
            278 callgsubr
            -61 -79 vvcurveto
            -139 96 -92 150 134 93 76 116 10 vhcurveto
            -150 hlineto
            -35 -9 -31 -27 -47 hhcurveto
            -54 -38 36 63 61 38 38 return
          </CharString>
          <CharString index="202">
            199 callgsubr
            96 hlineto
            -3 -17 -2 -18 -19 vvcurveto
            -138 -48 callgsubr
          </CharString>
          <CharString index="203">
            132 194 callsubr
            return
          </CharString>
          <CharString index="204">
            146 -236 vlineto
            return
          </CharString>
          <CharString index="205">
            rmoveto
            -177 hlineto
            89 260 rlineto
            endchar
          </CharString>
          <CharString index="206">
            rmoveto
            -319 -162 vlineto
            595 320 rmoveto
            136 -546 vlineto
            -362 -707 rlineto
            186 hlineto
            61 121 rlineto
            228 -121 433 137 -261 159 231 130 -231 145 hlineto
            endchar
          </CharString>
          <CharString index="207">
            283 6 callgsubr
            return
          </CharString>
          <CharString index="208">
            161 callgsubr
            -19 -33 -22 -56 hhcurveto
            return
          </CharString>
          <CharString index="209">
            -10 vlineto
            -47 -18 -23 -34 vhcurveto
            -63 vlineto
            return
          </CharString>
          <CharString index="210">
            -86 -118 -55 17 -49 29 -37 hvcurveto
            return
          </CharString>
          <CharString index="211">
            -149 hlineto
            -69 -47 -48 -73 -75 -49 49 70 84 64 42 79 vhcurveto
            386 hlineto
            36 39 -8 -41 -33 -28 -12 -45 hvcurveto
            -55 hlineto
            -8 -1 -8 -7 vvcurveto
            -168 103 -73 122 77 51 28 44 32 vhcurveto
            -115 vlineto
            return
          </CharString>
          <CharString index="212">
            25 -56 -62 hvcurveto
            return
          </CharString>
          <CharString index="213">
            110 204 131 -995 -131 639 -97 vlineto
            -57 -13 -49 -34 -34 -61 rrcurveto
            171 callgsubr
            return
          </CharString>
          <CharString index="214">
            vlineto
            -64 27 62 -44 88 hhcurveto
            137 104 107 179 180 -104 106 -137 -88 -62 -44 -64 -27 hvcurveto
            244 -178 rmoveto
            -87 -51 -49 -71 -70 -53 51 85 86 53 50 70 71 51 -49 -87 vhcurveto
            endchar
          </CharString>
          <CharString index="215">
            -218 -65 callgsubr
          </CharString>
          <CharString index="216">
            hhcurveto
            140 86 93 131 hvcurveto
            30 115 129 callsubr
            return
          </CharString>
          <CharString index="217">
            203 221 584 rmoveto
            38 1 32 35 46 hhcurveto
            49 30 -36 -40 -50 -34 -32 -36 -29 hvcurveto
            -60 28 -29 35 1 51 rrcurveto
            396 -584 rmoveto
            144 18 callsubr
            -248 -414 hlineto
            return
          </CharString>
          <CharString index="218">
            hhcurveto
            126 100 74 133 128 -95 77 -131 -132 -96 -15 callgsubr
            -77 callsubr
            vlineto
            return
          </CharString>
          <CharString index="219">
            -45 vlineto
            -66 -20 -46 -59 -19 vhcurveto
            40 -39 -61 27 -91 hhcurveto
            return
          </CharString>
          <CharString index="220">
            183 callsubr
            -96 61 -52 62 -18 vhcurveto
            -4 vlineto
            return
          </CharString>
          <CharString index="221">
            119 114 96 return
          </CharString>
          <CharString index="222">
            -20 34 43 vhcurveto
            return
          </CharString>
          <CharString index="223">
            52 callgsubr
            vlineto
            endchar
          </CharString>
          <CharString index="224">
            17 callgsubr
            -116 84 -69 129 -26 vhcurveto
            -111 -136 rlineto
            25 callsubr
            return
          </CharString>
          <CharString index="225">
            268 callgsubr
            61 149 callsubr
            return
          </CharString>
          <CharString index="226">
            66 callgsubr
            hvcurveto
            return
          </CharString>
          <CharString index="227">
            97 callsubr
            -92 -60 194 callgsubr
            return
          </CharString>
          <CharString index="228">
            -144 vlineto
            9 callsubr
            return
          </CharString>
          <CharString index="229">
            443 -159 137 callgsubr
            return
          </CharString>
          <CharString index="230">
            -31 callgsubr
            353 return
          </CharString>
          <CharString index="231">
            -131 168 -199 vlineto
            -121 56 -95 108 -22 vhcurveto
            -168 -198 306 callgsubr
            187 245 rlineto
            1 0 1 1 hhcurveto
            -220 84 callsubr
            33 54 69 return
          </CharString>
          <CharString index="232">
            -131 323 -50 vlineto
            -80 -35 -50 -107 vhcurveto
            -101 -221 160 callsubr
            82 126 vhcurveto
            17 -151 -22 vlineto
            -40 -21 -29 -39 -42 -19 32 43 vhcurveto
            103 return
          </CharString>
          <CharString index="233">
            -138 151 189 callgsubr
            49 62 1 vhcurveto
            53 1 25 -35 7 -34 rrcurveto
            -149 11 95 -98 164 hhcurveto
            87 176 callsubr
            hvcurveto
            -156 70 callgsubr
          </CharString>
          <CharString index="234">
            102 141 callsubr
            return
          </CharString>
          <CharString index="235">
            -17 callsubr
            28 return
          </CharString>
          <CharString index="236">
            -354 207 callgsubr
            return
          </CharString>
          <CharString index="237">
            -83 callgsubr
            -736 -131 339 -74 -74 vlineto
            -99 -84 -46 -105 -137 121 -25 77 hvcurveto
            -73 callsubr
            return
          </CharString>
          <CharString index="238">
            rmoveto
            -154 73 -10 vlineto
            -47 -18 -11 -34 vhcurveto
            -63 vlineto
            167 8 178 107 -55 hvcurveto
            endchar
          </CharString>
          <CharString index="239">
            hmoveto
            70 callsubr
            return
          </CharString>
          <CharString index="240">
            rmoveto
            -100 callsubr
            -15 282 rmoveto
            return
          </CharString>
          <CharString index="241">
            272 212 rmoveto
            -41 -31 25 40 43 35 25 47 hvcurveto
            64 -45 hlineto
            -52 -23 -36 -51 vhcurveto
            return
          </CharString>
          <CharString index="242">
            -66 -47 -27 -41 -28 vhcurveto
            146 749 255 callsubr
            -159 vlineto
            -57 -25 -35 -47 vhcurveto
            return
          </CharString>
          <CharString index="243">
            79 77 119 return
          </CharString>
          <CharString index="244">
            -138 151 105 callgsubr
            27 50 64 58 32 -43 -56 vhcurveto
            1 hlineto
            -133 -48 callgsubr
          </CharString>
          <CharString index="245">
            133 callsubr
            -60 -41 40 62 60 44 40 58 66 35 -47 -53 -51 -36 -51 -66 hvcurveto
            return
          </CharString>
          <CharString index="246">
            480 121 callsubr
            -140 -84 -99 -133 -138 83 -103 141 49 callsubr
          </CharString>
          <CharString index="247">
            38 callgsubr
            -133 -79 -95 -138 return
          </CharString>
          <CharString index="248">
            vvcurveto
            74 97 callsubr
            -92 -60 -68 -98 vhcurveto
            return
          </CharString>
          <CharString index="249">
            105 -77 114 callsubr
            return
          </CharString>
          <CharString index="250">
            -74 callsubr
            -202 -187 rmoveto
            -77 callsubr
            return
          </CharString>
          <CharString index="251">
            171 237 hlineto
            167 -237 rlineto
            206 hlineto
            -230 279 225 279 rlineto
            -201 hlineto
            -167 -224 rlineto
            406 -171 vlineto
            endchar
          </CharString>
          <CharString index="252">
            -78 -36 56 78 hvcurveto
            87 vlineto
            226 -151 rlineto
            -41 -17 -37 -29 -58 hhcurveto
            122 171 rmoveto
            -235 158 rlineto
            235 hlineto
            252 hmoveto
            131 return
          </CharString>
          <CharString index="253">
            157 hlineto
            86 59 45 76 50 43 -22 -32 25 vhcurveto
            -377 -333 rlineto
            -6 205 vlineto
            185 180 rlineto
            -181 152 151 callgsubr
          </CharString>
          <CharString index="254">
            hlineto
            8 callgsubr
            return
          </CharString>
          <CharString index="255">
            80 hmoveto
            171 414 101 144 -101 hlineto
            3 59 27 21 71 -5 rrcurveto
            147 vlineto
            -177 13 -95 -81 -148 vvcurveto
            -6 -67 -144 67 vlineto
            return
          </CharString>
          <CharString index="256">
            64 callgsubr
            -6 315 callsubr
            return
          </CharString>
          <CharString index="257">
            -153 101 -74 112 55 45 18 32 28 return
          </CharString>
          <CharString index="258">
            -11 callgsubr
            -155 81 -115 157 75 58 32 46 38 vhcurveto
            -50 37 60 -31 84 hhcurveto
            147 74 94 126 hvcurveto
            244 return
          </CharString>
          <CharString index="259">
            207 hlineto
            -285 361 285 346 rlineto
            -205 hlineto
            -242 -311 rlineto
            311 -171 -707 171 317 vlineto
            endchar
          </CharString>
          <CharString index="260">
            rmoveto
            -67 -46 45 66 65 47 310 callsubr
            hvcurveto
            return
          </CharString>
          <CharString index="261">
            vlineto
            -123 76 217 callgsubr
            return
          </CharString>
          <CharString index="262">
            62 32 43 60 63 105 callsubr
            return
          </CharString>
          <CharString index="263">
            189 callgsubr
            50 return
          </CharString>
          <CharString index="264">
            rmoveto
            -67 -33 37 43 -7 hvcurveto
            84 11 47 48 65 vvcurveto
            99 -79 55 -143 vhcurveto
            -342 78 668 -287 hlineto
            -96 -56 -53 -72 vhcurveto
            return
          </CharString>
          <CharString index="265">
            rmoveto
            -88 callsubr
            return
          </CharString>
          <CharString index="266">
            226 -252 vlineto
            -83 -62 -52 -79 vhcurveto
            396 387 -83 callgsubr
            return
          </CharString>
          <CharString index="267">
            hlineto
            -122 74 -95 145 132 76 return
          </CharString>
          <CharString index="268">
            177 171 -177 hlineto
            return
          </CharString>
          <CharString index="269">
            -133 hlineto
            -76 -48 -59 -93 -54 -41 23 48 39 27 29 61 vhcurveto
            298 callgsubr
            vlineto
            endchar
          </CharString>
          <CharString index="270">
            106 76 52 68 45 vhcurveto
            292 callsubr
            return
          </CharString>
          <CharString index="271">
            37 693 -75 callsubr
            -710 -131 445 -79 -40 vlineto
            -152 -106 -80 -144 -83 36 -69 65 -35 hvcurveto
            return
          </CharString>
          <CharString index="272">
            -18 callgsubr
            32 54 69 return
          </CharString>
          <CharString index="273">
            -30 callgsubr
            133 -609 -65 callgsubr
          </CharString>
          <CharString index="274">
            291 callsubr
            193 callsubr
            return
          </CharString>
          <CharString index="275">
            rmoveto
            2 0 6 -1 10 vhcurveto
            -153 -16 hlineto
            -47 -26 -34 -46 -57 return
          </CharString>
          <CharString index="276">
            8 12 0 1 14 return
          </CharString>
          <CharString index="277">
            -131 310 return
          </CharString>
          <CharString index="278">
            -27 -33 -16 -45 -58 vvcurveto
            -144 116 -79 142 vhcurveto
            42 124 -17 hlineto
            -84 -43 45 69 77 54 41 80 hvcurveto
            return
          </CharString>
          <CharString index="279">
            254 callgsubr
            107 77 53 70 45 vhcurveto
            -5 19 21 -2 22 hhcurveto
            return
          </CharString>
          <CharString index="280">
            -131 348 -130 -66 vlineto
            -123 -102 -63 -134 -118 88 -78 131 138 75 90 135 hvcurveto
            42 return
          </CharString>
          <CharString index="281">
            -91 callsubr
            132 callgsubr
            64 return
          </CharString>
          <CharString index="282">
            231 callsubr
            hvcurveto
            81 vlineto
            endchar
          </CharString>
          <CharString index="283">
            64 29 45 41 return
          </CharString>
          <CharString index="284">
            292 30 callsubr
            return
          </CharString>
          <CharString index="285">
            rmoveto
            47 123 -336 -41 callsubr
            99 131 -257 289 callgsubr
            return
          </CharString>
          <CharString index="286">
            303 callgsubr
            140 86 93 131 vhcurveto
            30 return
          </CharString>
          <CharString index="287">
            vvcurveto
            111 -84 80 -139 -136 -83 -84 -114 -85 48 return
          </CharString>
          <CharString index="288">
            vlineto
            -1 -11 -1 -11 -11 vvcurveto
            -138 83 -103 return
          </CharString>
          <CharString index="289">
            306 callsubr
            -47 -48 -34 return
          </CharString>
          <CharString index="290">
            -2 -11 -1 -12 -13 vvcurveto
            return
          </CharString>
          <CharString index="291">
            24 vlineto
            63 25 55 return
          </CharString>
          <CharString index="292">
            326 165 rmoveto
            -76 -67 49 83 21 4 19 6 17 hvcurveto
            215 -162 rlineto
            -17 -22 -28 -10 -32 hhcurveto
            return
          </CharString>
          <CharString index="293">
            268 callgsubr
            62 -10 vlineto
            -47 -19 -23 -33 vhcurveto
            -63 vlineto
            return
          </CharString>
          <CharString index="294">
            -90 callgsubr
            vhcurveto
            -138 return
          </CharString>
          <CharString index="295">
            -257 -740 vlineto
            endchar
          </CharString>
          <CharString index="296">
            129 hlineto
            -8 25 -5 27 25 vvcurveto
            52 29 27 34 37 27 -36 -55 -117 -87 -62 -154 vhcurveto
            return
          </CharString>
          <CharString index="297">
            -443 -85 callgsubr
            return
          </CharString>
          <CharString index="298">
            rmoveto
            -94 -53 53 71 -2 hvcurveto
            107 14 55 75 101 vvcurveto
            87 145 -240 vlineto
            -93 210 callgsubr
            return
          </CharString>
          <CharString index="299">
            -145 hlineto
            -79 -58 -60 -95 -87 -65 46 85 -2 vhcurveto
            117 13 44 76 102 vvcurveto
            74 vlineto
            endchar
          </CharString>
          <CharString index="300">
            75 103 vvcurveto
            79 97 callsubr
            -92 return
          </CharString>
          <CharString index="301">
            142 74 87 141 return
          </CharString>
          <CharString index="302">
            -49 -50 -35 34 48 vhcurveto
            return
          </CharString>
          <CharString index="303">
            -131 346 return
          </CharString>
          <CharString index="304">
            -350 274 -211 rmoveto
            90 -125 vlineto
            285 callgsubr
            return
          </CharString>
          <CharString index="305">
            -241 vlineto
            120 callgsubr
            41 124 return
          </CharString>
          <CharString index="306">
            91 callgsubr
            endchar
          </CharString>
          <CharString index="307">
            rmoveto
            -123 64 -16 vlineto
            -45 -18 -22 -35 vhcurveto
            -64 vlineto
            return
          </CharString>
          <CharString index="308">
            129 hlineto
            256 hmoveto
            131 return
          </CharString>
          <CharString index="309">
            203 callgsubr
            -34 return
          </CharString>
          <CharString index="310">
            196 callsubr
            -144 -64 return
          </CharString>
          <CharString index="311">
            -69 -80 hlineto
            -101 -61 -51 -77 return
          </CharString>
          <CharString index="312">
            -15 -15 -1 -2 -14 return
          </CharString>
          <CharString index="313">
            hvcurveto
            185 184 return
          </CharString>
          <CharString index="314">
            128 -366 return
          </CharString>
          <CharString index="315">
            201 295 rmoveto
            86 175 rlineto
            -157 hlineto
            -85 -175 85 -175 rlineto
            157 hlineto
            return
          </CharString>
          <CharString index="316">
            rmoveto
            -48 -38 30 58 54 38 31 48 58 218 callgsubr
            -29 -42 -55 vhcurveto
            endchar
          </CharString>
          <CharString index="317">
            rmoveto
            -168 43 callgsubr
            66 291 -58 vlineto
            -78 -34 -44 -113 vhcurveto
            return
          </CharString>
          <CharString index="318">
            -131 98 -160 vlineto
            -123 73 -98 149 147 74 95 126 vhcurveto
            160 return
          </CharString>
          <CharString index="319">
            rmoveto
            -101 callsubr
            98 return
          </CharString>
          <CharString index="320">
            -53 46 69 -30 89 hhcurveto
            77 57 27 42 37 hvcurveto
            -151 -65 callgsubr
          </CharString>
          <CharString index="321">
            25 -57 callsubr
            return
          </CharString>
          <CharString index="322">
            -136 142 callsubr
            return
          </CharString>
          <CharString index="323">
            -609 204 callgsubr
            return
          </CharString>
          <CharString index="324">
            -27 -24 -3 -6 -21 vhcurveto
            return
          </CharString>
          <CharString index="325">
            170 callsubr
            -232 return
          </CharString>
          <CharString index="326">
            51 93 vhcurveto
            408 return
          </CharString>
          <CharString index="327">
            -43 55 59 -7 vhcurveto
            return
          </CharString>
          <CharString index="328">
            rmoveto
            122 vlineto
            -5 -17 -32 -8 -34 hhcurveto
            -50 -45 18 53 41 28 31 52 hvcurveto
            45 return
          </CharString>
          <CharString index="329">
            hlineto
            246 callsubr
            127 return
          </CharString>
          <CharString index="330">
            5 0 8 -1 9 vhcurveto
            -150 -13 hlineto
            -40 -22 233 callgsubr
            98 return
          </CharString>
          <CharString index="331">
            rmoveto
            67 49 46 68 75 40 -54 -59 -58 -40 -55 -75 -69 -48 45 68 vhcurveto
            382 return
          </CharString>
          <CharString index="332">
            -250 -20 -188 rmoveto
            165 hlineto
            269 1138 rlineto
            -165 hlineto
            endchar
          </CharString>
          <CharString index="333">
            rlineto
            159 hlineto
            return
          </CharString>
          <CharString index="334">
            57 36 -43 -56 return
          </CharString>
          <CharString index="335">
            -57 -25 -35 -46 return
          </CharString>
          <CharString index="336">
            rmoveto
            -81 -36 52 82 hvcurveto
            88 vlineto
            227 -153 rlineto
            -38 -14 -36 -31 -60 hhcurveto
            return
          </CharString>
          <CharString index="337">
            106 -41 104 43 52 7 14 31 vhcurveto
            115 vlineto
            -5 -16 -43 -10 -43 hhcurveto
            -40 return
          </CharString>
          <CharString index="338">
            241 callsubr
            106 -50 71 -78 26 return
          </CharString>
          <CharString index="339">
            171 740 -171 hlineto
            endchar
          </CharString>
          <CharString index="340">
            hhcurveto
            -131 -89 -77 -128 return
          </CharString>
          <CharString index="341">
            -113 -298 return
          </CharString>
          <CharString index="342">
            -5 callgsubr
            vvcurveto
            -171 return
          </CharString>
          <CharString index="343">
            rmoveto
            48 35 35 306 callsubr
            -48 -47 -34 -35 195 callsubr
            return
          </CharString>
          <CharString index="344">
            707 517 64 callsubr
            return
          </CharString>
          <CharString index="345">
            119 callgsubr
            75 return
          </CharString>
          <CharString index="346">
            rmoveto
            184 87 vlineto
            75 28 -36 -57 -55 -28 -36 -75 hvcurveto
            277 91 rmoveto
            return
          </CharString>
          <CharString index="347">
            -45 hlineto
            -32 -27 12 34 35 33 11 32 206 callsubr
            hlineto
            endchar
          </CharString>
          <CharString index="348">
            139 120 185 return
          </CharString>
          <CharString index="349">
            -4 -16 -2 -18 -18 vvcurveto
            return
          </CharString>
          <CharString index="350">
            hhcurveto
            88 65 29 return
          </CharString>
          <CharString index="351">
            hlineto
            -100 -59 -49 -74 -56 31 -42 53 -24 hvcurveto
            -71 -49 -39 -80 -103 vvcurveto
            return
          </CharString>
          <CharString index="352">
            rmoveto
            2 2 2 3 2 2 rrcurveto
            -128 151 70 callsubr
            return
          </CharString>
          <CharString index="353">
            -129 -108 -71 295 callsubr
            66 return
          </CharString>
          <CharString index="354">
            hhcurveto
            113 -36 callgsubr
            hvcurveto
            207 callsubr
            return
          </CharString>
          <CharString index="355">
            141 callgsubr
            endchar
          </CharString>
          <CharString index="356">
            -283 117 hmoveto
            180 707 -286 -160 106 hlineto
            endchar
          </CharString>
          <CharString index="357">
            rmoveto
            128 352 -191 -100 63 hlineto
            return
          </CharString>
          <CharString index="358">
            1 -340 rlineto
            -147 84 -103 170 return
          </CharString>
          <CharString index="359">
            332 -83 callgsubr
            return
          </CharString>
          <CharString index="360">
            rmoveto
            124 -369 283 callgsubr
            vlineto
            -31 -29 -17 -41 -47 vvcurveto
            return
          </CharString>
          <CharString index="361">
            140 callsubr
            -107 return
          </CharString>
          <CharString index="362">
            -121 -269 return
          </CharString>
          <CharString index="363">
            -131 vlineto
            endchar
          </CharString>
          <CharString index="364">
            vlineto
            -33 -8 -38 -43 -39 -12 31 29 vhcurveto
            25 -133 -30 vlineto
            return
          </CharString>
          <CharString index="365">
            217 callgsubr
            5 0 8 -1 9 vhcurveto
            return
          </CharString>
          <CharString index="366">
            104 -100 139 71 57 26 42 32 return
          </CharString>
          <CharString index="367">
            -143 vlineto
            43 -34 -54 26 -67 hhcurveto
            return
          </CharString>
          <CharString index="368">
            609 rmoveto
            294 callgsubr
            return
          </CharString>
          <CharString index="369">
            178 171 -178 hlineto
            return
          </CharString>
          <CharString index="370">
            -300 207 callgsubr
            return
          </CharString>
          <CharString index="371">
            -131 374 -79 -38 return
          </CharString>
          <CharString index="372">
            -321 vlineto
            -136 return
          </CharString>
          <CharString index="373">
            vhcurveto
            157 hlineto
            return
          </CharString>
          <CharString index="374">
            64 29 46 41 return
          </CharString>
          <CharString index="375">
            -31 40 hvcurveto
            endchar
          </CharString>
          <CharString index="376">
            rmoveto
            124 -18 vlineto
            -85 -41 46 71 75 53 40 80 hvcurveto
            return
          </CharString>
          <CharString index="377">
            201 callgsubr
            217 callsubr
            return
          </CharString>
          <CharString index="378">
            264 callsubr
            vlineto
            -153 -113 -84 -154 return
          </CharString>
          <CharString index="379">
            621 hmoveto
            327 122 vlineto
            30 30 5 9 27 hvcurveto
            return
          </CharString>
          <CharString index="380">
            268 callgsubr
            62 102 callsubr
            return
          </CharString>
          <CharString index="381">
            119 -91 33 -134 -51 -33 5 33 32 31 8 32 return
          </CharString>
          <CharString index="382">
            1 rrcurveto
            -50 -126 53 hlineto
            88 25 -17 -121 78 hvcurveto
            return
          </CharString>
          <CharString index="383">
            -23 -22 -3 -6 return
          </CharString>
          <CharString index="384">
            25 46 45 35 26 -57 callsubr
            return
          </CharString>
          <CharString index="385">
            hlineto
            283 callsubr
            return
          </CharString>
          <CharString index="386">
            609 162 216 callsubr
            return
          </CharString>
          <CharString index="387">
            -107 -77 -164 136 callgsubr
            return
          </CharString>
          <CharString index="388">
            -67 -48 -27 -43 -29 vhcurveto
            148 return
          </CharString>
          <CharString index="389">
            35 25 49 hvcurveto
            59 return
          </CharString>
          <CharString index="390">
            205 callsubr
            hvcurveto
            -17 9 -10 15 19 vvcurveto
            return
          </CharString>
          <CharString index="391">
            181 callgsubr
            vlineto
            return
          </CharString>
          <CharString index="392">
            161 116 100 147 50 -14 46 -26 36 return
          </CharString>
          <CharString index="393">
            69 vvcurveto
            106 -82 78 -135 -134 -80 -81 -102 return
          </CharString>
          <CharString index="394">
            292 rmoveto
            -74 -33 52 74 hvcurveto
            191 214 return
          </CharString>
          <CharString index="395">
            hlineto
            294 callsubr
            return
          </CharString>
          <CharString index="396">
            132 141 74 87 141 vhcurveto
            47 129 return
          </CharString>
          <CharString index="397">
            97 callsubr
            -92 -59 -68 -100 vhcurveto
            endchar
          </CharString>
          <CharString index="398">
            -2 hvcurveto
            117 13 45 return
          </CharString>
          <CharString index="399">
            -1 10 10 -1 11 hhcurveto
            return
          </CharString>
          <CharString index="400">
            hvcurveto
            -190 vlineto
            endchar
          </CharString>
          <CharString index="401">
            -37 -16 -32 -32 -57 vvcurveto
            -84 72 -31 69 vhcurveto
            return
          </CharString>
          <CharString index="402">
            -143 215 callsubr
            return
          </CharString>
          <CharString index="403" raw="1">
            fb6c8d1d 0b  
          </CharString>
          <CharString index="404">
            30 310 callgsubr
            return
          </CharString>
          <CharString index="405">
            219 callgsubr
            158 -45 vlineto
            -87 return
          </CharString>
          <CharString index="406">
            -156 -68 callgsubr
            return
          </CharString>
          <CharString index="407">
            54 26 46 34 vhcurveto
            -134 return
          </CharString>
          <CharString index="408" raw="1">
            f79e1dbc 1f0b  
          </CharString>
          <CharString index="409">
            -47 -25 -40 -28 hvcurveto
            151 return
          </CharString>
          <CharString index="410">
            138 86 90 129 2 return
          </CharString>
          <CharString index="411">
            247 -207 rmoveto
            return
          </CharString>
          <CharString index="412">
            -135 105 -78 return
          </CharString>
          <CharString index="413">
            50 49 34 -35 return
          </CharString>
          <CharString index="414">
            292 rmoveto
            -70 -31 52 74 hvcurveto
            191 return
          </CharString>
          <CharString index="415">
            -156 -64 vlineto
            -43 -40 -8 -16 -35 hvcurveto
            return
          </CharString>
          <CharString index="416">
            rmoveto
            -49 -41 23 48 39 27 29 61 hvcurveto
            return
          </CharString>
          <CharString index="417">
            45 66 74 195 callgsubr
            -74 return
          </CharString>
          <CharString index="418">
            -57 callsubr
            -48 vhcurveto
            return
          </CharString>
          <CharString index="419">
            -79 103 callsubr
            return
          </CharString>
          <CharString index="420">
            53 13 39 53 82 vvcurveto
            60 vlineto
            endchar
          </CharString>
          <CharString index="421">
            -50 -35 33 48 vhcurveto
            endchar
          </CharString>
          <CharString index="422">
            37 -14 38 hvcurveto
            return
          </CharString>
          <CharString index="423">
            -155 -129 return
          </CharString>
        <CharString name=".notdef">
          -139 0 vmoveto
          500 700 -500 hlineto
          250 -305 rmoveto
          -170 255 rlineto
          340 hlineto
          -140 -300 rmoveto
          170 255 rlineto
          -510 vlineto
          -370 -45 rmoveto
          170 255 170 -255 rlineto
          -370 555 rmoveto
          170 -255 -170 -255 rlineto
          endchar
        </CharString>
        <CharString name="A">
          -63 callgsubr
          -44 130 98 callsubr
        </CharString>
        <CharString name="AE">
          310 478 570 99 callsubr
        </CharString>
        <CharString name="Aacute">
          -63 callgsubr
          -229 734 -69 callgsubr
          -56 -720 98 callsubr
        </CharString>
        <CharString name="Abreve">
          -63 callgsubr
          39 802 -80 callgsubr
          -83 -672 98 callsubr
        </CharString>
        <CharString name="Acircumflex">
          -63 callgsubr
          24 732 -63 callsubr
          -68 -489 98 callsubr
        </CharString>
        <CharString name="Adieresis">
          -63 callgsubr
          -233 642 -97 callgsubr
          -13 -512 98 callsubr
        </CharString>
        <CharString name="Agrave">
          -63 callgsubr
          -277 721 rmoveto
          241 -103 rlineto
          116 vlineto
          -241 116 rlineto
          233 -720 98 callsubr
        </CharString>
        <CharString name="Amacron">
          -63 callgsubr
          -332 651 rmoveto
          400 115 -400 hlineto
          288 -636 98 callsubr
        </CharString>
        <CharString name="Aogonek">
          91 8 hmoveto
          180 hlineto
          44 129 rlineto
          266 hlineto
          43 -127 rlineto
          -44 -22 -19 -34 -43 vvcurveto
          -84 71 -31 70 vhcurveto
          143 90 -126 hlineto
          -27 -16 11 20 19 16 11 27 hvcurveto
          82 72 hlineto
          -254 691 rlineto
          -197 hlineto
          187 -443 rmoveto
          -178 hlineto
          89 260 rlineto
          endchar
        </CharString>
        <CharString name="Aring">
          -63 callgsubr
          -80 740 rmoveto
          -32 -22 -21 -30 -29 -23 21 32 33 23 20 29 30 22 -20 -33 vhcurveto
          -173 hmoveto
          -75 54 -46 67 67 55 46 75 76 -55 46 -67 -67 -54 -46 -76 vhcurveto
          209 -610 98 callsubr
        </CharString>
        <CharString name="Atilde">
          -63 callgsubr
          -333 630 -96 callgsubr
          289 -500 98 callsubr
        </CharString>
        <CharString name="B">
          14 447 217 rmoveto
          -52 -33 -26 -62 vhcurveto
          -122 159 121 hlineto
          62 34 -30 -51 hvcurveto
          -16 277 rmoveto
          -49 -29 -27 -60 vhcurveto
          -112 152 110 hlineto
          63 28 -28 -48 hvcurveto
          191 -301 rmoveto
          82 -52 69 -88 20 vhcurveto
          71 17 53 56 89 vvcurveto
          116 -83 65 -143 vhcurveto
          -321 -707 329 hlineto
          153 81 74 119 hvcurveto
          endchar
        </CharString>
        <CharString name="C">
          -54 callgsubr
          endchar
        </CharString>
        <CharString name="CR">
          -439 endchar
        </CharString>
        <CharString name="Cacute">
          -54 callgsubr
          243 509 -69 callgsubr
          endchar
        </CharString>
        <CharString name="Ccaron">
          -54 callgsubr
          341 504 -68 callsubr
        </CharString>
        <CharString name="Ccedilla">
          118 38 354 rmoveto
          -194 113 -142 182 -21 vhcurveto
          -119 73 vlineto
          30 callgsubr
          40 vlineto
          154 18 101 100 31 142 rrcurveto
          -181 hlineto
          -63 -26 -56 -41 -78 hhcurveto
          -99 -68 78 123 124 68 78 99 78 56 -41 -64 26 hvcurveto
          181 hlineto
          158 -34 -121 105 -183 hhcurveto
          -210 -134 -149 -211 hvcurveto
          endchar
        </CharString>
        <CharString name="Cdotaccent">
          -54 callgsubr
          340 417 -48 callsubr
        </CharString>
        <CharString name="D">
          94 326 707 rmoveto
          -267 -707 73 callgsubr
          404 248 callsubr
        </CharString>
        <CharString name="Dcaron">
          94 326 707 rmoveto
          -267 -707 73 callgsubr
          404 141 callgsubr
          67 705 -68 callsubr
        </CharString>
        <CharString name="Dcroat">
          67 callgsubr
        </CharString>
        <CharString name="E">
          -70 callsubr
          endchar
        </CharString>
        <CharString name="Eacute">
          -70 callsubr
          -317 292 -69 callgsubr
          endchar
        </CharString>
        <CharString name="Ebreve">
          -70 callsubr
          -49 360 -80 callgsubr
          endchar
        </CharString>
        <CharString name="Ecaron">
          -70 callsubr
          -219 287 -68 callsubr
        </CharString>
        <CharString name="Ecircumflex">
          -70 callsubr
          -64 290 -63 callsubr
          endchar
        </CharString>
        <CharString name="Edieresis">
          -70 callsubr
          -321 200 -97 callgsubr
          endchar
        </CharString>
        <CharString name="Edotaccent">
          -70 callsubr
          -220 200 -48 callsubr
        </CharString>
        <CharString name="Egrave">
          -70 callsubr
          -365 279 -28 callgsubr
        </CharString>
        <CharString name="Emacron">
          -70 callsubr
          -419 209 77 callgsubr
        </CharString>
        <CharString name="Eogonek">
          -102 499 707 rmoveto
          -440 -707 172 hlineto
          -4 -12 -2 -13 -15 vvcurveto
          91 callsubr
          4 33 137 -269 157 239 129 -239 148 269 hlineto
          endchar
        </CharString>
        <CharString name="Eth">
          67 callgsubr
        </CharString>
        <CharString name="Euro">
          163 82 354 rmoveto
          -10 0 -10 1 -9 vhcurveto
          -67 -79 79 hlineto
          -152 38 121 -100 173 hhcurveto
          182 122 106 157 33 hvcurveto
          -180 hlineto
          -63 -26 -57 -41 -77 hhcurveto
          -66 -52 34 59 -28 hvcurveto
          175 79 -196 hlineto
          -1 9 0 10 10 vvcurveto
          10 0 9 1 9 vhcurveto
          196 79 -176 hlineto
          60 28 53 35 66 hhcurveto
          77 57 -41 -64 26 hvcurveto
          180 hlineto
          158 -33 -122 105 -182 hhcurveto
          -173 -121 -100 -153 -38 hvcurveto
          -79 -79 67 hlineto
          -1 -9 0 -10 -9 vvcurveto
          endchar
        </CharString>
        <CharString name="F">
          -90 256 callgsubr
          286 224 130 -224 155 290 136 -461 hlineto
          endchar
        </CharString>
        <CharString name="G">
          123 38 354 -58 callgsubr
          endchar
        </CharString>
        <CharString name="Gbreve">
          123 38 354 -58 callgsubr
          514 577 -80 callgsubr
          endchar
        </CharString>
        <CharString name="Gdotaccent">
          123 38 354 -58 callgsubr
          343 417 -48 callsubr
        </CharString>
        <CharString name="H">
          90 498 hmoveto
          172 707 -172 -274 -268 274 -171 -707 171 295 268 hlineto
          endchar
        </CharString>
        <CharString name="I">
          69 callgsubr
          endchar
        </CharString>
        <CharString name="Iacute">
          69 callgsubr
          -11 156 -69 callgsubr
          endchar
        </CharString>
        <CharString name="Icircumflex">
          69 callgsubr
          241 154 -63 callsubr
          endchar
        </CharString>
        <CharString name="Idieresis">
          69 callgsubr
          -15 64 -97 callgsubr
          endchar
        </CharString>
        <CharString name="Idotaccent">
          69 callgsubr
          85 64 -48 callsubr
        </CharString>
        <CharString name="Igrave">
          69 callgsubr
          -59 143 -28 callgsubr
        </CharString>
        <CharString name="Imacron">
          69 callgsubr
          -114 73 77 callgsubr
        </CharString>
        <CharString name="Iogonek">
          197 callsubr
          687 -171 -698 288 callsubr
          endchar
        </CharString>
        <CharString name="Itilde">
          69 callgsubr
          -115 52 -96 callgsubr
          endchar
        </CharString>
        <CharString name="J">
          -90 324 224 rmoveto
          -49 -21 -27 -44 -48 -27 31 68 vhcurveto
          -169 hlineto
          -167 101 -87 151 141 87 81 150 vhcurveto
          483 -171 vlineto
          endchar
        </CharString>
        <CharString name="K">
          51 470 hmoveto
          152 callsubr
        </CharString>
        <CharString name="L">
          -161 59 707 rmoveto
          150 callgsubr
          endchar
        </CharString>
        <CharString name="Lacute">
          -161 59 707 rmoveto
          150 callgsubr
          -104 156 -69 callgsubr
          endchar
        </CharString>
        <CharString name="Lcaron">
          -107 335 707 rmoveto
          -123 63 -16 vlineto
          -45 -18 -22 -34 vhcurveto
          -64 vlineto
          95 45 64 88 36 -6 40 -14 42 hvcurveto
          -407 hmoveto
          150 callgsubr
          endchar
        </CharString>
        <CharString name="Ldot">
          -161 59 707 rmoveto
          150 callgsubr
          156 -425 -48 callsubr
        </CharString>
        <CharString name="Lslash">
          -144 75 707 rmoveto
          -275 vlineto
          -65 -21 rlineto
          -167 vlineto
          65 20 rlineto
          -264 400 131 -228 188 vlineto
          96 30 rlineto
          168 vlineto
          -96 -31 rlineto
          221 vlineto
          endchar
        </CharString>
        <CharString name="M">
          274 256 callgsubr
          440 hlineto
          153 -440 rlineto
          148 hlineto
          152 439 rlineto
          -439 171 702 -208 vlineto
          -187 -489 -191 489 rlineto
          -209 hlineto
          endchar
        </CharString>
        <CharString name="N">
          107 516 707 13 callgsubr
          endchar
        </CharString>
        <CharString name="NULL">
          -639 endchar
        </CharString>
        <CharString name="Nacute">
          107 516 707 13 callgsubr
          -411 156 -69 callgsubr
          endchar
        </CharString>
        <CharString name="Ncaron">
          107 516 707 13 callgsubr
          -313 151 -68 callsubr
        </CharString>
        <CharString name="Ntilde">
          107 516 707 13 callgsubr
          -515 52 -96 callgsubr
          endchar
        </CharString>
        <CharString name="O">
          -98 callgsubr
          endchar
        </CharString>
        <CharString name="OE">
          424 212 353 rmoveto
          127 71 79 112 111 72 -79 -127 -126 -72 -80 -111 -112 -71 80 126 vhcurveto
          813 218 rmoveto
          136 -440 -88 vlineto
          62 -41 -78 37 -83 hhcurveto
          -201 -144 -151 -214 -214 144 -150 201 hvcurveto
          83 2 78 35 41 62 rrcurveto
          -88 440 137 -268 157 238 129 -238 148 vlineto
          endchar
        </CharString>
        <CharString name="Oacute">
          -98 callgsubr
          -280 507 -69 callgsubr
          endchar
        </CharString>
        <CharString name="Ocircumflex">
          -98 callgsubr
          -27 505 -63 callsubr
          endchar
        </CharString>
        <CharString name="Odieresis">
          -98 callgsubr
          -284 415 -97 callgsubr
          endchar
        </CharString>
        <CharString name="Ograve">
          -98 callgsubr
          -328 494 -28 callgsubr
        </CharString>
        <CharString name="Ohungarumlaut">
          -98 callgsubr
          -53 603 54 callsubr
        </CharString>
        <CharString name="Omacron">
          -98 callgsubr
          -383 424 77 callgsubr
        </CharString>
        <CharString name="Oslash">
          150 37 356 rmoveto
          -98 34 -85 56 -63 vhcurveto
          -98 -109 rlineto
          93 hlineto
          56 62 rlineto
          -45 59 75 -25 82 hhcurveto
          199 158 150 213 98 -33 85 -56 62 hvcurveto
          98 109 rlineto
          -93 hlineto
          -56 -62 rlineto
          45 -59 -75 25 -83 hhcurveto
          -199 -158 -150 -212 hvcurveto
          174 hmoveto
          125 71 78 112 42 37 -11 -21 29 vhcurveto
          -262 -291 rlineto
          -19 32 -10 41 47 vvcurveto
          183 -203 rmoveto
          -42 -36 11 20 -29 hvcurveto
          261 291 rlineto
          19 -32 10 -40 -47 vvcurveto
          -124 -72 -79 -111 vhcurveto
          endchar
        </CharString>
        <CharString name="Otilde">
          -98 callgsubr
          -384 403 -96 callgsubr
          endchar
        </CharString>
        <CharString name="P">
          -20 230 385 239 callsubr
          137 -85 94 -173 vhcurveto
          -277 -707 171 248 106 hlineto
          170 88 98 130 hvcurveto
          endchar
        </CharString>
        <CharString name="Q">
          150 578 356 rmoveto
          -124 -72 -79 -111 -112 -71 79 124 125 71 78 112 111 72 -78 -125 vhcurveto
          -540 hmoveto
          -213 158 -150 199 26 26 3 5 25 vhcurveto
          92 -125 rlineto
          205 hlineto
          -158 187 rlineto
          86 64 55 103 126 vvcurveto
          212 -156 150 -201 -199 -158 -150 -212 vhcurveto
          endchar
        </CharString>
        <CharString name="R">
          -3 -42 callgsubr
          endchar
        </CharString>
        <CharString name="Racute">
          -3 -42 callgsubr
          -113 156 -69 callgsubr
          endchar
        </CharString>
        <CharString name="Rcaron">
          -3 -42 callgsubr
          -15 151 -68 callsubr
        </CharString>
        <CharString name="S">
          -36 221 521 -60 callsubr
          endchar
        </CharString>
        <CharString name="Sacute">
          -36 221 521 -60 callsubr
          -16 342 -69 callgsubr
          endchar
        </CharString>
        <CharString name="Scaron">
          -36 221 521 -60 callsubr
          82 337 -68 callsubr
        </CharString>
        <CharString name="T">
          -59 13 571 169 callgsubr
          endchar
        </CharString>
        <CharString name="Tcaron">
          -59 13 571 169 callgsubr
          278 151 -68 callsubr
        </CharString>
        <CharString name="Thorn">
          -20 230 263 239 callsubr
          132 -85 92 -173 vhcurveto
          -107 129 -170 -707 171 134 106 hlineto
          170 88 93 127 hvcurveto
          endchar
        </CharString>
        <CharString name="U">
          -87 callsubr
          endchar
        </CharString>
        <CharString name="Uacute">
          -87 callsubr
          196 156 -69 callgsubr
          endchar
        </CharString>
        <CharString name="Ubreve">
          -87 callsubr
          464 224 -80 callgsubr
          endchar
        </CharString>
        <CharString name="Ucircumflex">
          -87 callsubr
          449 154 -63 callsubr
          endchar
        </CharString>
        <CharString name="Udieresis">
          -87 callsubr
          192 64 -97 callgsubr
          endchar
        </CharString>
        <CharString name="Ugrave">
          -87 callsubr
          148 143 -28 callgsubr
        </CharString>
        <CharString name="Uhungarumlaut">
          -87 callsubr
          379 252 54 callsubr
        </CharString>
        <CharString name="Umacron">
          -87 callsubr
          94 73 77 callgsubr
        </CharString>
        <CharString name="Uogonek">
          94 562 -150 rmoveto
          89 -116 vlineto
          -30 -15 11 19 17 12 13 33 7 hvcurveto
          111 25 104 94 174 vvcurveto
          408 -171 -408 vlineto
          -98 -46 -46 -77 -82 -41 219 callsubr
          -171 -408 vlineto
          -175 102 -99 123 -26 vhcurveto
          -8 -6 -5 -11 -12 vvcurveto
          -81 65 -39 63 vhcurveto
          endchar
        </CharString>
        <CharString name="Uring">
          -87 callsubr
          172 162 49 callgsubr
        </CharString>
        <CharString name="Utilde">
          -87 callsubr
          92 52 -96 callgsubr
          endchar
        </CharString>
        <CharString name="V">
          88 253 hmoveto
          221 hlineto
          246 707 rlineto
          -183 hlineto
          -173 -532 -173 532 rlineto
          -183 hlineto
          endchar
        </CharString>
        <CharString name="W">
          -51 callsubr
          endchar
        </CharString>
        <CharString name="Wacute">
          -51 callsubr
          398 156 -69 callgsubr
          endchar
        </CharString>
        <CharString name="Wcircumflex">
          -51 callsubr
          651 154 -63 callsubr
          endchar
        </CharString>
        <CharString name="Wdieresis">
          -51 callsubr
          394 64 -97 callgsubr
          endchar
        </CharString>
        <CharString name="Wgrave">
          -51 callsubr
          350 143 -28 callgsubr
        </CharString>
        <CharString name="X">
          59 488 hmoveto
          203 hlineto
          -238 351 223 356 rlineto
          -195 hlineto
          -125 -213 -145 213 rlineto
          -203 hlineto
          233 -343 -226 -364 rlineto
          196 hlineto
          128 220 rlineto
          endchar
        </CharString>
        <CharString name="Y">
          -26 callgsubr
          endchar
        </CharString>
        <CharString name="Yacute">
          -26 callgsubr
          234 156 -69 callgsubr
          endchar
        </CharString>
        <CharString name="Ycircumflex">
          -26 callgsubr
          487 154 -63 callsubr
          endchar
        </CharString>
        <CharString name="Ydieresis">
          -26 callgsubr
          230 64 -97 callgsubr
          endchar
        </CharString>
        <CharString name="Ygrave">
          -26 callgsubr
          186 143 -28 callgsubr
        </CharString>
        <CharString name="Z">
          32 callgsubr
          endchar
        </CharString>
        <CharString name="Zacute">
          32 callgsubr
          -346 286 -69 callgsubr
          endchar
        </CharString>
        <CharString name="Zcaron">
          32 callgsubr
          -248 281 -68 callsubr
        </CharString>
        <CharString name="Zdotaccent">
          32 callgsubr
          -249 194 -48 callsubr
        </CharString>
        <CharString name="a">
          -93 callgsubr
          endchar
        </CharString>
        <CharString name="aacute">
          -93 callgsubr
          -221 435 -69 callgsubr
          endchar
        </CharString>
        <CharString name="abreve">
          -93 callgsubr
          47 503 -80 callgsubr
          endchar
        </CharString>
        <CharString name="acircumflex">
          -93 callgsubr
          32 433 -63 callsubr
          endchar
        </CharString>
        <CharString name="acute">
          -363 18 714 -69 callgsubr
          endchar
        </CharString>
        <CharString name="adieresis">
          -93 callgsubr
          -225 343 -97 callgsubr
          endchar
        </CharString>
        <CharString name="ae">
          -7 callsubr
          endchar
        </CharString>
        <CharString name="agrave">
          -93 callgsubr
          -269 422 -28 callgsubr
        </CharString>
        <CharString name="amacron">
          -93 callgsubr
          -324 352 77 callgsubr
        </CharString>
        <CharString name="ampersand">
          54 420 74 rmoveto
          7 9 5 8 5 8 82 -99 rcurveline
          172 hlineto
          -350 458 rlineto
          -20 26 -12 17 25 vvcurveto
          25 18 21 31 35 19 -20 -37 2 vhcurveto
          1 -10 1 -12 -15 vvcurveto
          159 hlineto
          2 32 -3 34 -10 31 rrcurveto
          74 -21 -58 65 -130 hhcurveto
          -136 -70 -83 -87 -42 13 -32 19 -31 hvcurveto
          4 -7 4 -6 4 -7 rrcurveto
          -93 -12 -71 -76 -119 vvcurveto
          -122 82 -97 146 76 58 33 48 29 vhcurveto
          -244 143 rmoveto
          50 33 27 45 45 40 -33 -48 -46 -33 -32 -47 -47 -36 31 51 vhcurveto
          endchar
        </CharString>
        <CharString name="aogonek">
          -11 callsubr
          -92 vlineto
          -38 -15 -32 -33 -57 vvcurveto
          91 callsubr
          80 -1 538 -170 -101 hlineto
          64 -28 153 callgsubr
        </CharString>
        <CharString name="approxequal">
          -3 25 120 rmoveto
          47 callsubr
          250 vmoveto
          47 callsubr
          endchar
        </CharString>
        <CharString name="aring">
          -93 callgsubr
          -245 441 49 callgsubr
        </CharString>
        <CharString name="asciicircum">
          68 508 165 rmoveto
          170 hlineto
          -241 539 rlineto
          -166 hlineto
          -242 -539 316 callgsubr
          155 343 rlineto
          endchar
        </CharString>
        <CharString name="asciitilde">
          -3 25 206 rmoveto
          47 callsubr
          endchar
        </CharString>
        <CharString name="asterisk">
          -111 328 740 rmoveto
          -119 hlineto
          26 -131 -103 86 -57 -102 121 -41 -123 -43 63 -108 99 90 -24 -131 rlineto
          117 hlineto
          -25 131 99 -88 61 106 -124 41 124 43 -57 102 -103 -86 rlineto
          endchar
        </CharString>
        <CharString name="at">
          632 747 290 rmoveto
          -105 -7 -66 -43 -60 hhcurveto
          -57 -54 38 90 8 hvcurveto
          101 7 63 44 61 hhcurveto
          60 52 -35 -90 -7 hvcurveto
          -400 -23 rmoveto
          -164 -17 89 -111 135 hhcurveto
          100 62 50 78 42 hvcurveto
          -91 14 69 -37 90 hhcurveto
          164 147 159 205 300 -209 166 -325 -359 -304 -220 -373 -310 191 -188 357 -5 hvcurveto
          32 139 rlineto
          -283 -1 -131 143 222 vvcurveto
          251 163 202 307 253 134 -133 -199 -141 -64 -67 -61 -36 -16 17 58 7 vhcurveto
          13 93 rlineto
          162 21 -105 92 -155 hhcurveto
          -175 -135 -123 -174 -15 hvcurveto
          endchar
        </CharString>
        <CharString name="atilde">
          -93 callgsubr
          -325 331 -96 callgsubr
          endchar
        </CharString>
        <CharString name="b">
          39 230 457 rmoveto
          283 -171 -740 171 101 107 callsubr
        </CharString>
        <CharString name="backslash">
          138 322 950 rmoveto
          -164 hlineto
          268 -1138 rlineto
          164 hlineto
          endchar
        </CharString>
        <CharString name="bar">
          -395 36 816 rmoveto
          -946 172 946 vlineto
          endchar
        </CharString>
        <CharString name="braceleft">
          -181 198 373 rmoveto
          77 15 34 46 77 66 -19 53 75 vvcurveto
          136 66 78 69 29 vhcurveto
          13 -160 vlineto
          -36 -17 -96 -71 -172 -75 19 -53 -67 vvcurveto
          -45 -17 -50 -82 -9 vhcurveto
          -60 vlineto
          79 -8 20 -51 -45 -67 -19 -53 -75 vvcurveto
          -172 96 -71 36 -17 vhcurveto
          160 13 hlineto
          -69 29 -66 78 136 76 19 53 66 vvcurveto
          76 -36 47 -75 14 vhcurveto
          endchar
        </CharString>
        <CharString name="braceright">
          -196 264 371 rmoveto
          -75 -14 -36 -41 -67 -66 19 -53 -76 vvcurveto
          -129 -65 -100 -70 -29 vhcurveto
          -13 160 vlineto
          36 17 96 71 172 75 -20 53 67 vvcurveto
          45 22 57 78 2 vhcurveto
          60 vlineto
          -78 3 -22 56 45 67 20 53 75 vvcurveto
          172 -96 71 -36 17 vhcurveto
          -160 -13 hlineto
          70 -29 65 -100 -129 -75 -19 -53 -66 vvcurveto
          -68 35 -40 76 -15 vhcurveto
          endchar
        </CharString>
        <CharString name="bracketleft">
          -184 93 -188 rmoveto
          310 138 -149 862 149 138 -310 hlineto
          endchar
        </CharString>
        <CharString name="bracketright">
          -187 361 950 rmoveto
          -310 -138 149 -862 -149 -138 310 hlineto
          endchar
        </CharString>
        <CharString name="breve">
          -264 359 782 -80 callgsubr
          endchar
        </CharString>
        <CharString name="brokenbar">
          -267 100 282 rmoveto
          -412 172 412 vlineto
          124 vmoveto
          410 -172 -410 vlineto
          endchar
        </CharString>
        <CharString name="bullet">
          -173 233 184 rmoveto
          85 66 65 84 85 -66 67 -85 -84 -66 -67 -85 -84 66 -65 84 hvcurveto
          endchar
        </CharString>
        <CharString name="c">
          -46 callgsubr
          endchar
        </CharString>
        <CharString name="cacute">
          -46 callgsubr
          180 435 -69 callgsubr
          endchar
        </CharString>
        <CharString name="caron">
          -294 173 709 -68 callsubr
        </CharString>
        <CharString name="ccaron">
          -46 callgsubr
          278 430 -68 callsubr
        </CharString>
        <CharString name="ccedilla">
          -25 30 279 rmoveto
          -148 81 -99 121 -30 vhcurveto
          -124 73 vlineto
          30 callgsubr
          37 vlineto
          133 8 94 82 24 132 rrcurveto
          -181 hlineto
          -47 -11 -34 -29 -51 hhcurveto
          -56 -47 43 96 96 47 43 56 51 34 -29 -47 11 hvcurveto
          181 hlineto
          139 -25 -104 84 -144 hhcurveto
          -164 -117 -107 -179 hvcurveto
          endchar
        </CharString>
        <CharString name="cdotaccent">
          -46 callgsubr
          276 343 -48 callsubr
        </CharString>
        <CharString name="cedilla">
          -319 173 7 rmoveto
          -101 -129 73 hlineto
          30 callgsubr
          endchar
        </CharString>
        <CharString name="cent">
          -58 551 207 rmoveto
          -157 hlineto
          -45 -9 -42 -24 -42 hhcurveto
          -63 -44 41 78 79 44 42 63 42 39 -23 -47 12 hvcurveto
          157 hlineto
          -10 122 -93 72 -114 11 rrcurveto
          85 -74 -85 vlineto
          -139 -14 -91 -89 -152 vvcurveto
          -153 91 -89 139 -14 vhcurveto
          -88 74 88 vlineto
          114 12 93 72 10 121 rrcurveto
          endchar
        </CharString>
        <CharString name="circumflex">
          -294 328 712 -63 callsubr
          endchar
        </CharString>
        <CharString name="colon">
          -362 54 hmoveto
          262 callsubr
          236 vmoveto
          262 callsubr
          endchar
        </CharString>
        <CharString name="comma">
          -402 28 106 131 callsubr
        </CharString>
        <CharString name="copyright">
          140 742 357 rmoveto
          -211 -143 -150 -209 -209 -143 150 211 211 143 148 209 209 143 -148 -211 vhcurveto
          -647 hmoveto
          -183 113 -125 182 181 114 125 183 183 -114 122 -181 -182 -113 -122 -183 vhcurveto
          76 -1 rmoveto
          -141 93 -84 130 103 88 65 108 19 vhcurveto
          -144 hlineto
          -35 -10 -27 -25 -37 hhcurveto
          -46 -36 37 75 75 36 36 46 37 27 -24 -36 10 hvcurveto
          144 hlineto
          109 -19 -88 65 -103 hhcurveto
          -130 -93 -84 -141 hvcurveto
          endchar
        </CharString>
        <CharString name="currency">
          -61 215 377 rmoveto
          57 35 26 41 39 37 -26 -57 -56 -37 -25 -39 -41 -35 25 56 vhcurveto
          299 167 rmoveto
          -63 64 -66 -66 rlineto
          11 -28 -32 5 -34 hhcurveto
          -36 -33 -6 -11 -28 hvcurveto
          -67 67 -64 -64 56 -55 rlineto
          -24 -29 -13 -37 -44 vvcurveto
          -43 13 -37 23 -30 vhcurveto
          -55 -54 64 -64 63 64 rlineto
          -12 30 34 -7 37 hhcurveto
          36 33 6 12 28 hvcurveto
          63 -63 63 64 -52 52 rlineto
          23 30 14 38 44 vvcurveto
          45 -14 38 -25 29 vhcurveto
          endchar
        </CharString>
        <CharString name="d">
          39 30 279 rmoveto
          -17 callsubr
          27 vhcurveto
          -101 171 740 -171 -283 65 callsubr
        </CharString>
        <CharString name="dagger">
          6 391 546 rmoveto
          17 243 rlineto
          -171 hlineto
          16 -243 -207 12 rlineto
          -129 vlineto
          207 12 -16 -707 rlineto
          171 hlineto
          -17 707 208 -12 rlineto
          129 vlineto
          endchar
        </CharString>
        <CharString name="daggerdbl">
          6 600 558 rmoveto
          -209 -12 16 243 rlineto
          -171 hlineto
          17 -243 -208 12 rlineto
          -129 vlineto
          208 12 rlineto
          -358 vlineto
          -208 13 rlineto
          -131 vlineto
          208 12 -17 -243 rlineto
          171 hlineto
          -16 243 209 -12 rlineto
          131 vlineto
          -209 -13 rlineto
          358 vlineto
          209 -12 rlineto
          endchar
        </CharString>
        <CharString name="danda">
          -295 290 callgsubr
          endchar
        </CharString>
        <CharString name="dcaron">
          190 678 740 127 callgsubr
          -779 -461 rmoveto
          -17 callsubr
          27 vhcurveto
          -101 171 740 -171 -283 65 callsubr
        </CharString>
        <CharString name="dcroat">
          55 30 279 rmoveto
          -17 callsubr
          27 vhcurveto
          -101 171 607 65 76 -65 57 -171 -57 -96 -76 96 -150 65 callsubr
        </CharString>
        <CharString name="degree">
          -178 25 530 rmoveto
          -112 86 -71 123 124 78 71 112 112 -81 67 -124 -124 -82 -67 -112 vhcurveto
          280 -2 rmoveto
          -61 -33 -28 -38 -39 -38 28 61 63 36 27 39 38 35 -27 -63 vhcurveto
          endchar
        </CharString>
        <CharString name="dieresis">
          -246 95 622 -97 callgsubr
          endchar
        </CharString>
        <CharString name="divide">
          -78 25 273 rmoveto
          511 155 -511 hlineto
          166 -392 rmoveto
          177 172 -177 hlineto
          286 vmoveto
          161 callsubr
          endchar
        </CharString>
        <CharString name="dollar">
          -6 293 -87 rmoveto
          43 80 hlineto
          172 89 96 110 162 -150 30 -111 36 hvcurveto
          156 vlineto
          35 -9 23 -26 5 -40 rrcurveto
          185 hlineto
          -11 121 -89 78 -148 10 rrcurveto
          83 -43 -82 vlineto
          -143 -3 -112 -75 -126 vvcurveto
          -162 145 -31 110 -33 vhcurveto
          -159 vlineto
          -42 11 -25 30 -4 43 rrcurveto
          -182 hlineto
          9 -130 102 -76 142 -12 rrcurveto
          121 200 rmoveto
          -41 -30 -28 -48 -2 vhcurveto
          150 vlineto
          46 -17 32 -22 -40 vvcurveto
          -193 326 rmoveto
          41 27 22 45 3 vhcurveto
          -145 vlineto
          -42 18 -30 22 39 vvcurveto
          endchar
        </CharString>
        <CharString name="dotaccent">
          -456 91 622 -48 callsubr
        </CharString>
        <CharString name="dotlessi">
          86 callsubr
          endchar
        </CharString>
        <CharString name="dottedcircle">
          12 557 409 -44 callsubr
          -376 -286 -44 callsubr
          98 -76 -44 callsubr
          -143 189 -44 callsubr
          267 -203 -44 callsubr
          -252 324 -44 callsubr
          367 -278 -44 callsubr
          -291 377 -44 callsubr
          364 -281 -44 callsubr
          -247 323 -44 callsubr
          257 -203 -44 callsubr
          -136 188 -44 callsubr
          endchar
        </CharString>
        <CharString name="doubledanda">
          -22 290 callgsubr
          116 hmoveto
          -741 157 741 vlineto
          endchar
        </CharString>
        <CharString name="dvA">
          201 223 476 rmoveto
          -126 45 vlineto
          -43 callsubr
          263 callgsubr
          -255 -67 callgsubr
          endchar
        </CharString>
        <CharString name="dvAA">
          516 223 476 rmoveto
          -126 45 vlineto
          -43 callsubr
          157 279 callsubr
          -574 -67 callgsubr
          endchar
        </CharString>
        <CharString name="dvAI">
          14 337 19 rmoveto
          145 96 82 144 hvcurveto
          63 callgsubr
          87 131 -96 79 callsubr
          -443 -131 99 hlineto
          251 callsubr
          vhcurveto
          endchar
        </CharString>
        <CharString name="dvAU">
          238 callgsubr
          -107 vlineto
          317 -164 -31 15 -153 46 callgsubr
          -329 -67 callgsubr
          -45 -126 45 hlineto
          -43 callsubr
          hlineto
          endchar
        </CharString>
        <CharString name="dvAbbreviationsign">
          -163 240 504 rmoveto
          -102 -72 -69 -99 -98 72 -69 102 100 70 69 98 99 -70 69 -100 hvcurveto
          -93 vmoveto
          43 31 -31 -44 -44 -31 -30 -43 -46 -33 30 44 44 33 31 46 hvcurveto
          endchar
        </CharString>
        <CharString name="dvAcandra">
          204 223 476 rmoveto
          -126 45 vlineto
          -43 callsubr
          263 callgsubr
          -255 -67 callgsubr
          659 559 7 callsubr
        </CharString>
        <CharString name="dvAnusvara">
          -639 -69 904 -2 callsubr
        </CharString>
        <CharString name="dvAnusvara.amI">
          -639 225 904 -2 callsubr
        </CharString>
        <CharString name="dvAvagraha">
          -42 333 47 rmoveto
          103 70 55 92 hvcurveto
          175 -226 58 78 vvcurveto
          29 24 6 24 vhcurveto
          188 132 -227 hlineto
          -98 -71 -46 -97 hvcurveto
          -174 226 -60 -78 vvcurveto
          -24 -18 -15 -35 vhcurveto
          -236 -131 hlineto
          endchar
        </CharString>
        <CharString name="dvB">
          -252 581 305 rmoveto
          122 -83 116 -181 -167 -97 -104 -135 104 callgsubr
          175 88 112 134 vhcurveto
          -259 131 -83 callsubr
          263 173 -83 callgsubr
          -602 -131 vlineto
          340 190 callsubr
          endchar
        </CharString>
        <CharString name="dvBA">
          49 607 hmoveto
          18 callsubr
          -722 -131 473 103 callgsubr
          -140 -103 -96 -141 -145 104 -100 139 296 callgsubr
          441 -12 callsubr
        </CharString>
        <CharString name="dvBH">
          -99 -3 callgsubr
          202 129 -202 1 callgsubr
        </CharString>
        <CharString name="dvBHA">
          214 -3 callgsubr
          123 -336 216 callgsubr
          -275 -123 1 callgsubr
        </CharString>
        <CharString name="dvBH_LA">
          816 -3 callgsubr
          107 vlineto
          -3 -16 -1 -18 -19 vvcurveto
          136 callgsubr
          168 8 11 0 1 15 vhcurveto
          137 vlineto
          -1 -9 -12 -1 -6 hhcurveto
          -65 -42 -23 callgsubr
          30 -44 -61 -71 -42 -44 -64 -6 -11 1 1 -10 -1 callsubr
          -62 callgsubr
          -888 -131 540 -91 vlineto
          -65 -15 -38 -42 -21 -51 rrcurveto
          -4 hlineto
          62 -26 -53 52 -96 hhcurveto
          -59 -57 -19 -40 -42 hvcurveto
          -172 46 hlineto
          4 callsubr
        </CharString>
        <CharString name="dvBH_NA">
          727 -3 callgsubr
          109 vlineto
          -4 -17 -2 -18 -19 vvcurveto
          305 callsubr
          119 113 -36 callgsubr
          vhcurveto
          207 callsubr
          263 callgsubr
          -789 -131 534 -113 -297 hlineto
          -49 -47 -10 -21 -38 hvcurveto
          -206 46 hlineto
          -85 callsubr
          244 -6 128 callgsubr
          314 callsubr
        </CharString>
        <CharString name="dvBH_R">
          -99 134 callsubr
          216 96 rmoveto
          37 205 126 -205 40 vlineto
          67 callsubr
          -69 -65 vlineto
          -124 -102 -63 -132 200 callgsubr
          -45 -397 rmoveto
          250 252 rlineto
          142 vlineto
          -421 -394 rlineto
          endchar
        </CharString>
        <CharString name="dvBH_RA">
          214 134 callsubr
          216 96 rmoveto
          37 154 -87 259 callgsubr
          207 208 rlineto
          -119 141 609 99 131 -248 -269 -154 40 vlineto
          67 callsubr
          -69 -65 vlineto
          -124 -102 -63 -132 200 callgsubr
          endchar
        </CharString>
        <CharString name="dvBH_R_YA">
          644 134 callsubr
          614 1 29 callsubr
          -398 95 rmoveto
          37 93 vlineto
          2 -45 9 -40 16 -35 -336 -314 rcurveline
          171 hlineto
          231 227 rlineto
          -36 44 60 -20 73 8 callsubr
          -143 46 hlineto
          67 callsubr
          -75 -65 vlineto
          -124 -102 -61 -128 200 callgsubr
          endchar
        </CharString>
        <CharString name="dvBH_VA">
          565 -3 callgsubr
          101 181 callsubr
          142 67 300 callsubr
          154 70 callsubr
          -634 -131 383 -144 vlineto
          44 -34 -53 26 -68 hhcurveto
          -73 -57 -26 -44 -39 hvcurveto
          -155 46 hlineto
          -85 callsubr
          366 -101 154 callgsubr
          endchar
        </CharString>
        <CharString name="dvBH_YA">
          644 -3 callgsubr
          91 vlineto
          -155 10 96 -99 163 8 callsubr
          -140 46 hlineto
          -85 callsubr
          395 -76 29 callsubr
          endchar
        </CharString>
        <CharString name="dvB_BA">
          455 322 436 -83 callsubr
          691 -436 rmoveto
          18 callsubr
          -1128 -131 879 103 callgsubr
          -75 -64 -27 -47 -44 hvcurveto
          46 -43 -66 30 -93 -33 callgsubr
          91 67 30 48 43 hvcurveto
          -49 44 65 -29 74 309 callgsubr
          -539 166 -85 callgsubr
          412 5 rmoveto
          -75 -64 50 83 21 4 18 7 17 hvcurveto
          214 -161 rlineto
          -17 -22 -29 -11 -35 hhcurveto
          270 vmoveto
          -40 callsubr
          endchar
        </CharString>
        <CharString name="dvB_BHA">
          616 674 194 rmoveto
          -40 -31 25 46 46 35 25 49 114 callgsubr
          -48 vhcurveto
          218 95 rmoveto
          47 124 -336 216 callgsubr
          -275 -124 46 vlineto
          133 -51 105 -156 -26 -24 -3 -6 -21 vhcurveto
          -631 -131 627 1 hlineto
          57 -1 rlineto
          3 7 8 3 9 hhcurveto
          39 15 -30 -45 hvcurveto
          -75 -63 vlineto
          -51 -47 -11 -23 -38 hvcurveto
          65 -39 -75 47 -115 -33 callgsubr
          84 63 26 41 44 hvcurveto
          -41 38 58 -24 72 hhcurveto
          141 74 87 141 hvcurveto
          -570 147 -64 callgsubr
          endchar
        </CharString>
        <CharString name="dvB_BH_RA">
          636 322 436 rmoveto
          86 51 -63 -73 hvcurveto
          -3 vlineto
          -4 -1 -4 -4 vvcurveto
          -1 -14 -4 -14 -5 -12 -213 163 rcurveline
          18 24 30 10 33 hhcurveto
          1 -270 -85 callgsubr
          351 46 rmoveto
          -41 -30 25 40 43 34 25 47 hvcurveto
          64 -45 hlineto
          -52 -22 -36 -52 vhcurveto
          -11 397 rmoveto
          5 7 9 2 11 hhcurveto
          41 17 -31 -45 hvcurveto
          -69 -65 vlineto
          -53 -48 -12 -23 -39 hvcurveto
          63 -40 -74 44 -112 -33 callgsubr
          90 67 30 47 44 hvcurveto
          -34 38 55 -19 65 hhcurveto
          137 76 92 133 hvcurveto
          37 154 -87 259 callgsubr
          208 209 rlineto
          -120 141 18 callsubr
          -248 -269 -154 40 vlineto
          133 -51 105 -153 217 callsubr
          -631 -131 hlineto
          endchar
        </CharString>
        <CharString name="dvB_DA">
          379 1034 261 callsubr
          -1052 -131 780 -79 -38 hlineto
          -82 -70 -24 -46 -48 hvcurveto
          50 -43 -68 33 -97 -33 callgsubr
          87 65 28 44 44 hvcurveto
          -44 40 57 -22 61 hhcurveto
          55 45 18 32 28 hvcurveto
          51 callgsubr
          -598 190 callsubr
          -1 270 -83 callsubr
          endchar
        </CharString>
        <CharString name="dvB_DHA">
          474 185 callsubr
          818 444 -83 callgsubr
          -252 -360 vlineto
          -104 -66 -70 -101 -63 -43 24 47 -2 callgsubr
          276 callsubr
          -19 vhcurveto
          -591 -131 472 102 callgsubr
          -46 -11 -55 -36 -12 -69 rrcurveto
          -1 hlineto
          -2 -16 -4 -14 -7 -14 -216 164 rcurveline
          21 25 33 11 36 hhcurveto
          22 15 -2 -4 18 hvcurveto
          103 vlineto
          7 -24 -26 1 -21 hhcurveto
          -149 -107 -98 -146 -157 123 -84 140 80 67 29 52 43 hvcurveto
          -41 42 64 -21 72 hhcurveto
          94 71 32 56 42 hvcurveto
          -166 -65 callgsubr
        </CharString>
        <CharString name="dvB_DH_VA">
          868 185 callsubr
          1101 444 rmoveto
          97 131 -613 -131 362 -144 hlineto
          -55 callsubr
          276 callsubr
          -19 vhcurveto
          -591 -131 472 102 callgsubr
          -46 -11 -55 -36 -12 -69 rrcurveto
          -1 hlineto
          -2 -16 -4 -14 -7 -14 -216 164 rcurveline
          21 25 33 11 36 hhcurveto
          22 15 -2 -4 18 hvcurveto
          103 vlineto
          7 -24 -26 1 -21 hhcurveto
          -149 -107 -98 -146 -157 123 -84 140 79 67 28 52 44 hvcurveto
          -43 44 71 -20 84 hhcurveto
          111 65 40 61 39 hvcurveto
          147 callgsubr
          154 vlineto
          -266 188 rmoveto
          -67 -47 45 66 73 callsubr
          hvcurveto
          endchar
        </CharString>
        <CharString name="dvB_JA">
          600 323 166 -85 callgsubr
          933 443 -83 callgsubr
          -1273 -131 1019 255 callsubr
          -159 vlineto
          41 callsubr
          140 74 93 131 hvcurveto
          30 116 129 callsubr
          -837 -173 -83 callsubr
          endchar
        </CharString>
        <CharString name="dvB_JHA">
          713 323 166 145 callgsubr
          21 4 19 7 16 hvcurveto
          215 -163 rlineto
          -17 -23 -29 -10 -34 hhcurveto
          370 167 rmoveto
          -36 -26 13 32 36 33 11 34 hvcurveto
          232 184 186 -276 hlineto
          155 -333 rmoveto
          18 callsubr
          -1386 -131 796 -72 -118 vlineto
          -99 -84 -47 -110 hvcurveto
          -30 vlineto
          -39 -9 -38 -17 -31 vhcurveto
          -218 167 rlineto
          19 24 32 10 36 hhcurveto
          28 23 -3 -8 22 hvcurveto
          106 vlineto
          6 -25 -27 4 -30 -33 callgsubr
          135 79 79 107 28 hvcurveto
          27 -13 31 -7 29 -1 rrcurveto
          -2 28 61 0 40 hhcurveto
          59 27 -25 -39 -32 -21 -26 -48 -51 -31 28 41 -4 hvcurveto
          -133 -254 141 118 hlineto
          -17 18 41 -31 69 hhcurveto
          106 58 65 87 31 -6 26 -11 21 hvcurveto
          126 -215 hlineto
          endchar
        </CharString>
        <CharString name="dvB_J_YA">
          1055 1297 213 rmoveto
          -93 -52 55 77 -4 hvcurveto
          107 19 54 74 97 vvcurveto
          74 97 callsubr
          -92 210 callgsubr
          -975 223 -64 callgsubr
          1388 443 -83 callgsubr
          -1728 -131 1171 -45 vlineto
          -71 -34 -43 -114 vhcurveto
          -273 -121 hlineto
          41 callsubr
          138 74 91 129 2 hvcurveto
          110 hlineto
          -146 21 93 -92 153 hhcurveto
          87 -8 callgsubr
        </CharString>
        <CharString name="dvB_JxA">
          603 1256 -75 callsubr
          -1273 -131 1019 255 callsubr
          -159 vlineto
          41 callsubr
          140 74 93 131 hvcurveto
          30 116 129 callsubr
          -406 58 callsubr
          -430 215 -85 callgsubr
          -1 270 -83 callsubr
          endchar
        </CharString>
        <CharString name="dvB_LA">
          661 988 287 callgsubr
          -71 33 hvcurveto
          107 193 131 -1334 -131 986 -91 vlineto
          -65 -15 -38 -43 -21 -50 rrcurveto
          47 callgsubr
          63 25 55 65 59 31 -44 -61 -71 -43 -44 -64 -6 -11 1 1 -10 -1 callsubr
          -665 136 -85 callgsubr
          -1 270 -83 callsubr
          endchar
        </CharString>
        <CharString name="dvB_L_YA">
          1142 323 166 -85 callgsubr
          1475 443 -83 callgsubr
          -1815 -131 1258 -51 vlineto
          -58 -15 -43 -45 -22 vhcurveto
          59 -36 -60 30 -66 hhcurveto
          -96 -53 -51 -63 -25 hvcurveto
          47 callgsubr
          64 26 54 66 47 25 -29 -28 8 vhcurveto
          -151 11 95 -96 164 hhcurveto
          87 -1 callgsubr
          -316 -396 rmoveto
          -94 -53 54 72 122 callgsubr
          193 callsubr
          210 callgsubr
          -1062 223 -83 callsubr
          endchar
        </CharString>
        <CharString name="dvB_NA">
          593 600 100 callsubr
          -1266 -131 1011 206 callgsubr
          -61 -57 -16 -32 -43 hvcurveto
          56 -42 -71 39 -105 -33 callgsubr
          89 66 29 46 44 hvcurveto
          -42 42 60 -23 64 hhcurveto
          7 callgsubr
          -828 190 callsubr
          -1 270 -83 callsubr
          endchar
        </CharString>
        <CharString name="dvB_R">
          -252 585 -75 callsubr
          -602 -131 vlineto
          598 -304 rmoveto
          122 -83 116 -181 -167 -97 -104 -135 -138 96 -104 163 -3 vhcurveto
          -113 -122 rlineto
          157 hlineto
          176 212 rlineto
          -2 hlineto
          34 42 17 55 59 vvcurveto
          -259 131 -64 callgsubr
          endchar
        </CharString>
        <CharString name="dvB_RA">
          48 450 121 245 callsubr
          -721 -131 473 103 callgsubr
          -140 -103 -96 -141 -126 83 -90 118 -18 hvcurveto
          -124 -133 rlineto
          165 hlineto
          34 504 -12 callsubr
        </CharString>
        <CharString name="dvB_SA">
          586 322 436 -64 callgsubr
          510 377 13 callsubr
          409 66 -83 callgsubr
          -1259 -131 693 -66 vlineto
          -71 -30 -52 -89 -7 vhcurveto
          75 -37 -78 55 -125 -33 callgsubr
          73 58 19 33 42 hvcurveto
          -72 29 64 -48 97 hhcurveto
          134 79 179 callgsubr
          -32 callsubr
          vlineto
          endchar
        </CharString>
        <CharString name="dvB_SHA">
          609 921 207 168 callsubr
          -21 227 callgsubr
          39 vlineto
          152 123 73 229 callgsubr
          -94 80 -135 -26 -24 -3 -6 -22 hvcurveto
          -647 -131 694 hlineto
          3 7 8 1 9 hhcurveto
          45 25 170 callgsubr
          -87 hvcurveto
          -45 hlineto
          72 -38 -77 52 -122 -33 callgsubr
          75 59 21 34 43 hvcurveto
          -76 33 71 -45 99 hhcurveto
          137 86 79 135 hvcurveto
          -599 229 -64 callgsubr
          844 -166 160 callgsubr
        </CharString>
        <CharString name="dvB_TA">
          472 1128 -75 callsubr
          -1145 -131 890 253 callgsubr
          -76 -69 -18 -38 -51 hvcurveto
          63 -41 -74 44 -112 -33 callgsubr
          72 57 19 31 43 hvcurveto
          -75 44 85 -33 97 hhcurveto
          -49 callgsubr
          -707 190 callsubr
          -1 270 -83 callsubr
          endchar
        </CharString>
        <CharString name="dvB_VA">
          434 1090 740 rmoveto
          -1107 -131 856 12 callsubr
          -70 -56 -25 -42 -39 hvcurveto
          45 -43 -67 30 -91 -33 callgsubr
          88 66 28 46 44 hvcurveto
          -44 39 56 -27 72 hhcurveto
          68 54 26 46 34 hvcurveto
          -134 153 609 98 vlineto
          -364 -421 -89 callsubr
          -404 248 -64 callgsubr
          endchar
        </CharString>
        <CharString name="dvB_YA">
          501 760 213 rmoveto
          -91 -46 47 64 -14 hvcurveto
          119 17 46 101 93 vvcurveto
          74 120 callsubr
          -1191 -131 635 -45 vlineto
          -64 -18 -46 -55 -19 vhcurveto
          63 -41 -74 45 -113 -33 callgsubr
          100 72 37 56 43 hvcurveto
          -45 45 66 -25 82 187 callgsubr
          -754 190 callsubr
          -1 270 -83 callsubr
          endchar
        </CharString>
        <CharString name="dvC">
          -197 420 389 253 callsubr
          -127 99 -64 138 177 103 114 173 -2 vhcurveto
          -136 hlineto
          120 callgsubr
          272 220 -83 callgsubr
          -668 256 callsubr
        </CharString>
        <CharString name="dvCA">
          114 770 -75 callsubr
          -787 -131 532 -241 vlineto
          -91 -46 -63 -81 -1 vhcurveto
          -58 -1 -47 37 callsubr
          -119 90 -70 115 74 62 27 50 38 vhcurveto
          -160 70 callgsubr
        </CharString>
        <CharString name="dvCH">
          185 841 609 50 callsubr
          75 callsubr
        </CharString>
        <CharString name="dvCHA">
          185 841 609 50 callsubr
          106 -50 71 -78 26 vhcurveto
          81 vlineto
          -250 -455 -81 callsubr
          endchar
        </CharString>
        <CharString name="dvCH_R">
          62 callgsubr
          75 callsubr
        </CharString>
        <CharString name="dvCH_RA">
          62 callgsubr
          106 -50 71 -78 26 vhcurveto
          81 vlineto
          -250 -455 -81 callsubr
          endchar
        </CharString>
        <CharString name="dvCH_R_YA">
          -10 callsubr
          -116 84 -69 129 -26 vhcurveto
          -111 -136 226 callsubr
          92 119 92 -119 rlineto
          159 hlineto
          -118 143 83 23 62 44 38 60 rlinecurve
          213 callsubr
        </CharString>
        <CharString name="dvCH_YA">
          -10 callsubr
          -150 141 -72 199 157 114 54 91 58 vhcurveto
          213 callsubr
        </CharString>
        <CharString name="dvC_CA">
          479 384 213 rmoveto
          -56 -45 30 58 54 41 34 55 hvcurveto
          169 hlineto
          -23 -22 -16 -29 -6 -33 rrcurveto
          -53 -20 -38 -39 -61 hhcurveto
          750 -4 callsubr
          -1151 -131 896 198 callsubr
          -733 283 callgsubr
          hlineto
          -31 -29 -17 -41 -47 vvcurveto
          -127 91 -64 127 80 56 32 53 40 vhcurveto
          -53 36 64 -30 75 hhcurveto
          74 62 27 50 38 hvcurveto
          -160 70 callgsubr
        </CharString>
        <CharString name="dvC_CHA">
          619 838 154 -14 callsubr
          rrcurveto
          -81 50 116 -40 147 hhcurveto
          240 175 callsubr
        </CharString>
        <CharString name="dvC_CH_VA">
          619 836 -180 rmoveto
          -60 -40 41 58 57 38 43 68 1 hvcurveto
          0 vlineto
          30 33 3 4 30 hvcurveto
          -110 vlineto
          -50 -35 -47 -64 vhcurveto
          2 334 -14 callsubr
          27 -44 46 -32 60 -20 rrcurveto
          -43 -35 -24 -54 -61 vvcurveto
          -107 76 -88 130 60 48 22 40 31 vhcurveto
          -114 140 427 vlineto
          91 52 50 87 111 vvcurveto
          106 -50 71 -78 26 vhcurveto
          81 vlineto
          endchar
        </CharString>
        <CharString name="dvC_MA">
          660 1060 465 18 callgsubr
          -348 -415 -94 callgsubr
          604 415 -83 callgsubr
          -1333 -131 802 -144 -64 vlineto
          -107 -91 -49 -102 -22 hvcurveto
          -1 hlineto
          -60 -13 -39 -41 -67 hhcurveto
          -55 -43 31 57 54 41 34 55 hvcurveto
          41 124 -369 283 callgsubr
          hlineto
          -31 -29 -17 -41 -47 vvcurveto
          -124 96 -67 128 72 57 23 43 41 vhcurveto
          -54 37 65 -32 83 40 callsubr
        </CharString>
        <CharString name="dvC_NA">
          648 639 100 callsubr
          -1305 -131 1050 206 callgsubr
          -121 -102 -61 -126 -13 hvcurveto
          -12 -55 -39 -39 -63 -1 rrcurveto
          -56 -46 29 58 54 41 34 55 hvcurveto
          41 124 -369 283 callgsubr
          hlineto
          -31 -29 -17 -41 -47 vvcurveto
          -124 102 -66 132 71 58 26 46 40 vhcurveto
          -55 41 68 -30 74 -4 callgsubr
        </CharString>
        <CharString name="dvC_R">
          -197 651 -75 callsubr
          -668 -131 vlineto
          437 -220 253 callsubr
          -122 91 -63 129 -6 vhcurveto
          -116 -127 316 callgsubr
          161 197 53 51 28 75 -1 91 rlinecurve
          -136 hlineto
          120 callgsubr
          endchar
        </CharString>
        <CharString name="dvC_RA">
          114 770 -75 callsubr
          -787 -131 532 -241 vlineto
          -91 -46 -63 -81 -1 vhcurveto
          -58 -1 -47 37 callsubr
          -99 67 -64 92 -15 vhcurveto
          -127 -140 316 callgsubr
          152 185 9 8 9 8 7 9 rlinecurve
          -164 70 callgsubr
        </CharString>
        <CharString name="dvC_YA">
          578 820 213 rmoveto
          -82 callgsubr
          -1251 -131 694 250 callgsubr
          -1 -13 -2 -14 -13 vvcurveto
          -1 hlineto
          -2 -116 -50 -54 -77 -1 rrcurveto
          -57 -1 -46 37 callsubr
          -127 97 -64 138 87 69 33 63 43 vhcurveto
          -60 46 73 -35 97 hhcurveto
          87 -8 callgsubr
        </CharString>
        <CharString name="dvCandrabindu">
          -639 72 14 callgsubr
        </CharString>
        <CharString name="dvD">
          -28 682 -314 -59 callgsubr
          107 923 4 callgsubr
          endchar
        </CharString>
        <CharString name="dvDA">
          -27 628 609 4 callgsubr
          endchar
        </CharString>
        <CharString name="dvDA_mvR">
          -38 575 207 rmoveto
          -132 hlineto
          -67 -43 -40 -74 -58 -34 22 39 35 28 19 48 vhcurveto
          42 115 -35 hlineto
          -50 -37 14 37 41 39 9 46 hvcurveto
          191 178 120 131 -643 -131 373 -69 -106 hlineto
          -98 -80 -41 -100 -69 54 -46 57 -12 hvcurveto
          -3 vlineto
          -62 -13 -49 -43 -69 vvcurveto
          -110 108 -52 135 158 101 76 149 1 vhcurveto
          endchar
        </CharString>
        <CharString name="dvDD">
          -73 514 -301 -59 callgsubr
          230 910 -24 callsubr
          endchar
        </CharString>
        <CharString name="dvDDA">
          -73 583 609 -24 callsubr
          endchar
        </CharString>
        <CharString name="dvDDH">
          16 561 -289 -59 callgsubr
          272 898 -83 callgsubr
          -689 -131 380 -76 callgsubr
          116 176 hlineto
          endchar
        </CharString>
        <CharString name="dvDDHA">
          16 672 -75 callsubr
          -689 -131 380 -76 callgsubr
          116 176 hlineto
          endchar
        </CharString>
        <CharString name="dvDDH_DDHA">
          37 693 -75 callsubr
          -710 -131 379 -61 -29 vlineto
          -151 -114 -84 -152 -92 44 -68 70 -41 hvcurveto
          -70 -37 -44 -66 -92 vvcurveto
          -157 132 -85 169 170 89 67 112 89 -65 62 -110 -96 -63 -44 -80 180 callgsubr
          20 18 31 36 19 -21 -29 -50 -54 -25 -77 -111 -51 59 80 97 77 50 95 146 100 67 112 89 -61 62 -113 -96 -64 -43 -81 180 callgsubr
          19 18 33 35 19 -21 -30 -49 -54 -25 -77 -111 -51 59 80 97 74 49 95 vhcurveto
          117 158 hlineto
          endchar
        </CharString>
        <CharString name="dvDDH_R">
          16 568 -386 -59 callgsubr
          265 995 10 callgsubr
        </CharString>
        <CharString name="dvDDH_RA">
          16 672 609 10 callgsubr
        </CharString>
        <CharString name="dvDDH_VA">
          19 675 -75 callsubr
          -692 -131 377 -61 -27 vlineto
          -151 -114 -84 -152 -95 42 -70 67 -40 hvcurveto
          -55 -33 -33 -57 -70 vvcurveto
          -110 75 -83 128 60 47 23 39 30 vhcurveto
          -142 132 442 vlineto
          40 31 22 43 53 vvcurveto
          88 -61 62 -109 -96 -63 -43 -81 180 callgsubr
          19 18 31 31 19 -21 -29 -49 -52 -26 -73 -111 -51 59 80 97 74 49 95 vhcurveto
          115 158 hlineto
          -163 -735 rmoveto
          -56 -39 37 54 69 56 29 76 21 21 1 3 19 hvcurveto
          -95 vlineto
          -50 -33 -48 -65 vhcurveto
          endchar
        </CharString>
        <CharString name="dvDDH_YA">
          683 1242 132 callsubr
          -1356 -131 380 -76 callgsubr
          355 hlineto
          38 45 -10 -50 -39 -35 -16 -49 1 hvcurveto
          -45 -23 hlineto
          -168 103 -72 122 77 51 286 callgsubr
          -69 -32 38 46 -7 hvcurveto
          77 9 54 40 77 vvcurveto
          101 -71 52 -148 vhcurveto
          -255 73 578 -293 hlineto
          -93 -56 -50 -71 vhcurveto
          endchar
        </CharString>
        <CharString name="dvDDHxA">
          16 672 -75 callsubr
          -689 -131 380 -76 callgsubr
          116 176 hlineto
          -64 -766 -39 callgsubr
        </CharString>
        <CharString name="dvDD_DDA">
          -61 595 -75 callsubr
          -612 196 callsubr
          185 callgsubr
          -149 hlineto
          -52 30 -40 46 -24 vhcurveto
          -38 -20 -23 -32 -46 vvcurveto
          -100 87 -31 128 50 50 -5 -51 -35 -27 -21 -53 -60 -39 27 42 -2 vhcurveto
          -149 hlineto
          -112 5 107 -58 140 hhcurveto
          143 82 57 101 119 -91 33 -139 -50 -37 3 35 29 25 11 53 153 86 57 100 274 callsubr
          hvcurveto
          184 168 hlineto
          endchar
        </CharString>
        <CharString name="dvDD_DDHA">
          -51 589 -75 callsubr
          -602 -131 341 185 callgsubr
          -150 hlineto
          -55 35 -42 51 -24 vhcurveto
          -70 -33 -45 -65 -94 vvcurveto
          -158 130 -81 163 161 85 69 111 88 -65 63 -107 -95 -62 -45 -80 -9 2 -14 2 -12 vhcurveto
          102 hlineto
          -2 5 -1 5 5 vvcurveto
          25 19 17 30 34 17 -21 -29 -49 -52 -26 -72 -108 -49 56 76 92 70 47 90 7 vhcurveto
          142 14 73 49 95 vvcurveto
          274 callsubr
          vhcurveto
          184 168 hlineto
          endchar
        </CharString>
        <CharString name="dvDD_R">
          -73 512 -398 -59 callgsubr
          232 1007 20 callsubr
        </CharString>
        <CharString name="dvDD_RA">
          -73 583 609 20 callsubr
        </CharString>
        <CharString name="dvDD_VA">
          -50 283 -150 rmoveto
          -50 -40 33 56 66 45 35 74 22 20 1 3 19 hvcurveto
          -113 vlineto
          -41 -32 -40 -58 vhcurveto
          323 759 -83 callgsubr
          -623 -131 345 -66 -75 vlineto
          -100 -79 -43 -95 -129 123 -17 80 61 51 -6 -53 -36 -27 -21 -53 -60 -37 28 38 -4 hvcurveto
          -150 hlineto
          -54 34 -48 55 -30 vhcurveto
          -55 -29 -33 -56 -69 vvcurveto
          -108 76 -75 110 53 45 17 32 30 vhcurveto
          -115 132 432 vlineto
          20 25 11 31 37 vvcurveto
          110 -81 40 -120 6 vhcurveto
          -62 3 -46 -4 43 vvcurveto
          36 33 8 30 vhcurveto
          184 168 hlineto
          endchar
        </CharString>
        <CharString name="dvDD_YA">
          570 1129 132 callsubr
          -1243 -131 336 -74 -71 vlineto
          -99 -84 -46 -105 -137 121 -25 77 hvcurveto
          -92 callsubr
          351 hlineto
          35 45 -10 -47 -38 -34 -14 -46 hvcurveto
          -49 hlineto
          -8 -1 -8 -7 vvcurveto
          -166 104 -71 122 77 50 286 callgsubr
          -68 -33 37 43 -7 hvcurveto
          85 11 46 48 68 vvcurveto
          97 -72 54 -149 vhcurveto
          -178 78 503 -287 hlineto
          -96 -55 -53 -72 vhcurveto
          endchar
        </CharString>
        <CharString name="dvDDxA">
          -73 583 609 -24 callsubr
          -74 -778 -39 callgsubr
        </CharString>
        <CharString name="dvDH">
          -212 642 328 rmoveto
          -138 hlineto
          -71 -53 -51 -105 -57 -58 18 53 2 callsubr
          -126 112 -57 147 190 121 101 151 vhcurveto
          endchar
        </CharString>
        <CharString name="dvDHA">
          93 756 -75 callsubr
          -252 -360 vlineto
          -104 -66 -70 -101 -63 -43 24 47 2 callsubr
          -120 102 -61 123 94 71 32 56 42 vhcurveto
          -166 -65 callgsubr
        </CharString>
        <CharString name="dvDH_MA">
          662 1318 -75 callsubr
          -795 -131 263 -144 -63 vlineto
          -111 -92 -52 -107 -19 hvcurveto
          -2 -11 rlineto
          -53 -13 -49 -36 -91 hhcurveto
          -57 -5 callsubr
          105 -57 140 95 75 22 42 50 vhcurveto
          -50 37 64 -29 79 hhcurveto
          141 74 87 141 hvcurveto
          47 129 -336 -68 callgsubr
          -505 -415 239 callgsubr
          347 271 18 callgsubr
          endchar
        </CharString>
        <CharString name="dvDH_NA">
          632 1292 -75 callsubr
          -769 -131 514 206 callgsubr
          -119 -102 -60 -123 -14 hvcurveto
          -70 -14 -53 -37 -90 hhcurveto
          -58 -9 callgsubr
          134 97 74 32 61 43 vhcurveto
          -64 40 74 -36 81 247 callsubr
          -41 callsubr
          hlineto
          -551 -326 128 callgsubr
          314 callsubr
        </CharString>
        <CharString name="dvDH_N_YA">
          1084 1740 -75 callsubr
          -1232 -131 676 -45 vlineto
          -67 -35 -37 -114 vhcurveto
          -300 hlineto
          -114 -98 -55 -112 -21 hvcurveto
          -56 -20 -49 -31 -86 hhcurveto
          -58 -9 callgsubr
          134 89 69 25 49 43 vhcurveto
          -75 37 79 -41 88 hhcurveto
          113 96 65 -64 callsubr
          hvcurveto
          121 hlineto
          -153 21 94 -95 150 187 callgsubr
          -1002 -362 rmoveto
          48 35 35 50 48 35 -35 -47 -48 -35 -35 -48 -51 -34 34 48 vhcurveto
          686 -34 rmoveto
          -86 -52 56 78 -12 hvcurveto
          109 19 54 73 96 vvcurveto
          74 97 callsubr
          -92 -60 -68 -99 vhcurveto
          endchar
        </CharString>
        <CharString name="dvDH_R">
          -212 642 328 rmoveto
          -138 hlineto
          -71 -53 -51 -105 -57 -58 18 53 2 callsubr
          -126 112 -57 147 vhcurveto
          7 6 0 7 hhcurveto
          -134 -147 306 callgsubr
          190 233 rlineto
          43 43 23 56 67 vvcurveto
          endchar
        </CharString>
        <CharString name="dvDH_RA">
          93 494 155 53 callgsubr
          -107 -79 -67 -109 -96 61 -52 62 -18 vhcurveto
          -4 vlineto
          -52 -12 -63 -45 -87 vvcurveto
          -111 91 -59 115 -6 vhcurveto
          -140 -154 306 callgsubr
          endchar
        </CharString>
        <CharString name="dvDH_VA">
          465 1039 609 rmoveto
          97 131 -613 -131 362 -144 hlineto
          -55 callsubr
          -107 -79 -67 -109 133 callgsubr
          154 vlineto
          -266 188 rmoveto
          -67 -47 45 66 73 callsubr
          hvcurveto
          endchar
        </CharString>
        <CharString name="dvDH_YA">
          564 1220 -75 callsubr
          -697 -131 140 193 callgsubr
          -3 -20 -1 -20 -20 vvcurveto
          -2 vlineto
          0 vlineto
          -91 1 -51 -65 -105 hhcurveto
          -57 -9 callgsubr
          147 99 77 38 64 48 vhcurveto
          188 callgsubr
          207 callgsubr
          -315 -396 rmoveto
          -94 -54 33 callsubr
          -98 vhcurveto
          endchar
        </CharString>
        <CharString name="dvD_BA">
          148 callgsubr
          -113 78 -93 131 62 53 25 49 31 vhcurveto
          33 callgsubr
        </CharString>
        <CharString name="dvD_BHA">
          806 682 -314 -59 callgsubr
          107 923 4 callgsubr
          349 -415 -49 callsubr
          123 -336 216 callgsubr
          -275 -123 1 callgsubr
        </CharString>
        <CharString name="dvD_B_RA">
          148 callgsubr
          -94 54 -80 93 -24 vhcurveto
          -106 -115 rlineto
          162 hlineto
          127 151 9 9 9 10 7 11 rlinecurve
          33 callgsubr
        </CharString>
        <CharString name="dvD_DA">
          -67 524 -88 rmoveto
          273 -131 vlineto
          -50 -32 -35 -63 -56 -27 25 37 32 21 22 49 vhcurveto
          57 112 -54 hlineto
          -50 -28 21 32 41 39 13 48 hvcurveto
          154 174 138 131 -611 -131 319 -70 hlineto
          -16 -15 0 -15 hhcurveto
          -107 -93 -35 -106 -68 47 -45 62 -13 hvcurveto
          -4 vlineto
          -65 -14 -42 -49 -66 vvcurveto
          -108 92 -48 89 69 43 24 31 25 vhcurveto
          -126 vlineto
          endchar
        </CharString>
        <CharString name="dvD_DHA">
          281 937 -75 callsubr
          -954 -131 676 -79 -38 vlineto
          -152 -114 -84 -154 -79 27 -58 41 -37 hvcurveto
          -76 -15 -45 -45 -62 hhcurveto
          237 callgsubr
          41 33 26 63 -3 hvcurveto
          129 vlineto
          -174 12 -77 -76 -101 vvcurveto
          -92 60 -44 57 -16 vhcurveto
          78 callgsubr
        </CharString>
        <CharString name="dvD_GA">
          164 callsubr
          -104 257 callsubr
          -112 67 -65 117 133 57 86 113 vhcurveto
          76 vlineto
          38 6 31 18 22 24 rrcurveto
          -401 144 186 callgsubr
        </CharString>
        <CharString name="dvD_GHA">
          281 301 -3 rmoveto
          237 callgsubr
          39 31 26 52 22 25 -5 -11 25 hvcurveto
          -8 -24 -4 -27 -29 vvcurveto
          -79 27 -58 41 -37 vhcurveto
          -76 -15 -45 -45 -62 hhcurveto
          636 612 -83 callgsubr
          -954 -131 676 -79 -38 vlineto
          -74 -65 -20 -38 -47 hvcurveto
          28 -47 -60 18 -58 hhcurveto
          -147 -66 -74 -93 -92 60 -44 57 -16 hvcurveto
          78 callgsubr
        </CharString>
        <CharString name="dvD_G_RA">
          164 callsubr
          -48 257 callsubr
          -113 67 -64 117 133 57 85 114 vhcurveto
          20 vlineto
          38 6 31 18 22 24 rrcurveto
          -155 vlineto
          -307 -305 rlineto
          153 hlineto
          163 174 rlineto
          -115 135 186 callgsubr
        </CharString>
        <CharString name="dvD_MA">
          228 214 -111 rmoveto
          50 40 19 41 vhcurveto
          54 -47 hlineto
          -53 -22 -33 -44 -41 -28 27 37 vhcurveto
          278 197 rmoveto
          1 193 rlineto
          -206 hlineto
          -44 -30 21 36 40 30 20 43 hvcurveto
          185 213 154 -523 hlineto
          259 523 -83 callgsubr
          -901 -131 335 -79 -50 vlineto
          -120 -90 -53 -138 -122 95 -63 118 hvcurveto
          79 -68 -43 hlineto
          -124 -106 -47 -145 -123 81 -75 127 140 68 87 142 hvcurveto
          33 132 -292 156 943 vlineto
          endchar
        </CharString>
        <CharString name="dvD_NA">
          770 682 -314 -59 callgsubr
          256 597 6 callgsubr
          -1443 -131 374 -79 -38 vlineto
          -42 callsubr
          656 234 callsubr
          hlineto
          -96 callsubr
          207 callsubr
          -32 callsubr
          hlineto
          endchar
        </CharString>
        <CharString name="dvD_R">
          -28 683 -314 -59 callgsubr
          106 923 -83 callgsubr
          -645 271 callsubr
          -120 65 -69 84 -23 hvcurveto
          -14 callgsubr
        </CharString>
        <CharString name="dvD_RA">
          -28 628 -75 callsubr
          -645 271 callsubr
          -120 65 -69 84 -23 hvcurveto
          -14 callgsubr
        </CharString>
        <CharString name="dvD_VA">
          -27 629 -75 callsubr
          -646 -131 377 -79 -40 vlineto
          -152 -106 -75 -135 -79 33 -55 49 -31 hvcurveto
          -52 -34 -30 -57 -69 vvcurveto
          -108 71 -89 122 58 49 20 40 31 vhcurveto
          -119 144 564 91 callgsubr
          -220 -694 172 callgsubr
          endchar
        </CharString>
        <CharString name="dvD_YA">
          74 311 147 rmoveto
          -60 -35 22 40 38 30 18 44 hvcurveto
          58 118 -57 hlineto
          -44 -31 18 34 38 36 15 39 hvcurveto
          64 121 122 -294 hlineto
          -121 -77 -47 -89 vhcurveto
          419 462 -83 callgsubr
          -739 -131 214 -65 vlineto
          -5 -5 0 -5 hhcurveto
          -58 -76 -26 -84 -66 50 -34 56 -10 hvcurveto
          -5 vlineto
          -54 -13 -50 -37 -76 vvcurveto
          -104 93 -58 123 97 68 31 57 38 vhcurveto
          -119 154 151 callgsubr
        </CharString>
        <CharString name="dvE">
          14 670 -75 callsubr
          -687 -131 99 vlineto
          251 callsubr
          145 96 82 144 vhcurveto
          63 callgsubr
          vlineto
          endchar
        </CharString>
        <CharString name="dvEcandra">
          14 670 -75 callsubr
          -687 -131 99 vlineto
          251 callsubr
          145 96 82 144 vhcurveto
          63 callgsubr
          vlineto
          -16 421 7 callsubr
        </CharString>
        <CharString name="dvEight">
          21 callsubr
        </CharString>
        <CharString name="dvEyelash">
          -286 388 431 rmoveto
          -10 -21 -26 -10 -39 hhcurveto
          -61 -58 27 77 -4 hvcurveto
          -149 hlineto
          -160 5 121 -57 123 hhcurveto
          66 63 20 28 41 hvcurveto
          -6 263 -83 callgsubr
          -460 256 callsubr
        </CharString>
        <CharString name="dvEyelash_HA">
          177 773 77 -86 callgsubr
          -850 -131 572 204 callsubr
          -5 0 -5 1 -5 hvcurveto
          -1 -8 -7 -1 -9 hhcurveto
          -55 -47 31 62 hvcurveto
          -149 hlineto
          -143 3 110 -73 110 hhcurveto
          58 34 13 14 23 hvcurveto
          1 -1 1 -1 2 -1 82 callsubr
        </CharString>
        <CharString name="dvEyelash_YA">
          354 597 213 rmoveto
          -82 callgsubr
          -1028 -131 471 -45 vlineto
          -83 -31 -52 -101 -5 vhcurveto
          1 vlineto
          -58 -2 -76 27 77 vvcurveto
          -149 hlineto
          6 -158 122 -61 129 -4 rrcurveto
          -136 21 93 -86 153 hhcurveto
          87 -8 callgsubr
        </CharString>
        <CharString name="dvFive">
          62 callsubr
        </CharString>
        <CharString name="dvFour">
          131 callgsubr
        </CharString>
        <CharString name="dvG">
          -93 563 -75 callsubr
          -580 -99 callsubr
          vlineto
          endchar
        </CharString>
        <CharString name="dvGA">
          176 734 hmoveto
          18 callsubr
          -849 -99 callsubr
          126 -609 vlineto
          endchar
        </CharString>
        <CharString name="dvGH">
          -255 594 -75 callsubr
          -611 197 callgsubr
          157 175 99 119 144 vhcurveto
          162 callsubr
        </CharString>
        <CharString name="dvGHA">
          60 320 101 callgsubr
          32 51 hvcurveto
          39 159 callsubr
          -733 197 callgsubr
          119 75 63 27 50 41 vhcurveto
          -171 -65 callgsubr
        </CharString>
        <CharString name="dvGH_MA">
          604 1004 465 18 callgsubr
          -348 -415 -94 callgsubr
          -341 28 309 callsubr
          55 126 -43 264 callgsubr
          494 -144 -64 vlineto
          -105 -90 -48 -99 -24 hvcurveto
          -2 -5 rlineto
          -72 -24 -47 -19 -58 hhcurveto
          945 387 -83 callgsubr
          -1277 90 callsubr
          87 -62 132 72 66 20 45 43 vhcurveto
          -61 35 69 -37 89 40 callsubr
        </CharString>
        <CharString name="dvGH_NA">
          577 585 283 -102 callsubr
          -270 -61 309 callsubr
          49 126 -37 264 callgsubr
          744 206 callgsubr
          -109 -94 -50 -103 -27 hvcurveto
          -6 -18 rlineto
          -81 -25 -44 -22 -61 hhcurveto
          919 387 -83 callgsubr
          -1251 90 callsubr
          86 -62 129 78 71 22 54 43 vhcurveto
          -65 40 74 -36 81 -4 callgsubr
        </CharString>
        <CharString name="dvGH_R">
          -255 594 -75 callsubr
          -611 16 callsubr
          -116 89 -62 147 -5 vhcurveto
          -130 -143 rlineto
          168 hlineto
          178 216 rlineto
          50 48 26 68 74 vvcurveto
          162 callsubr
        </CharString>
        <CharString name="dvGH_RA">
          60 320 101 callgsubr
          36 50 hvcurveto
          36 159 callsubr
          -733 16 callsubr
          -105 79 -58 103 -10 vhcurveto
          -139 -153 306 callgsubr
          183 221 rlineto
          -172 -65 callgsubr
        </CharString>
        <CharString name="dvGH_YA">
          523 320 101 callgsubr
          32 51 hvcurveto
          39 387 -5 callgsubr
          -7 0 -7 -6 vvcurveto
          -70 -5 -48 -52 -87 hhcurveto
          445 -9 rmoveto
          -82 callgsubr
          -1196 197 callgsubr
          157 86 68 29 47 47 vhcurveto
          -56 46 71 -32 93 hhcurveto
          87 -8 callgsubr
        </CharString>
        <CharString name="dvG_BA">
          547 1105 hmoveto
          18 callsubr
          -1220 -99 callsubr
          503 103 callgsubr
          -140 -103 -96 -141 -145 104 -100 139 296 callgsubr
          171 rmoveto
          -75 -64 50 83 21 4 18 7 17 hvcurveto
          214 -161 rlineto
          -17 -22 -29 -11 -35 hhcurveto
          270 vmoveto
          -40 callsubr
          endchar
        </CharString>
        <CharString name="dvG_BHA">
          710 768 194 rmoveto
          246 callgsubr
          218 95 178 callsubr
          217 callsubr
          -723 218 callsubr
          hlineto
          -101 callgsubr
          306 vlineto
          4 8 10 2 8 hhcurveto
          40 16 -30 -45 hvcurveto
          -75 -63 vlineto
          -124 -101 -65 -136 -123 88 -80 131 194 callsubr
          hvcurveto
          endchar
        </CharString>
        <CharString name="dvG_BH_YA">
          1138 767 5 callsubr
          91 vlineto
          -155 10 96 -99 163 8 callsubr
          -140 270 callsubr
          -723 218 callsubr
          hlineto
          -101 callgsubr
          127 vlineto
          242 callsubr
          -56 callsubr
          -63 vlineto
          -124 -102 -65 -136 164 callgsubr
          hvcurveto
          395 -76 29 callsubr
          endchar
        </CharString>
        <CharString name="dvG_DA">
          470 1126 261 callsubr
          -1144 218 callsubr
          hlineto
          -101 callgsubr
          404 -79 -38 vlineto
          32 callsubr
          endchar
        </CharString>
        <CharString name="dvG_DHA">
          583 1146 hmoveto
          609 94 131 -252 -360 vlineto
          -104 -66 -70 -101 -63 -43 24 47 -2 callgsubr
          276 callsubr
          -19 vhcurveto
          -687 218 callsubr
          hlineto
          -101 callgsubr
          100 vlineto
          -2 -11 -1 -12 -13 vvcurveto
          -8 callsubr
          -120 102 -61 123 94 71 32 56 42 vhcurveto
          -166 vlineto
          endchar
        </CharString>
        <CharString name="dvG_DH_VA">
          964 1523 132 callsubr
          -613 -131 362 -144 vlineto
          -55 callsubr
          276 callsubr
          -19 vhcurveto
          -687 218 callsubr
          hlineto
          -101 callgsubr
          100 vlineto
          -2 -11 -1 -12 -13 vvcurveto
          133 callgsubr
          vlineto
          -112 188 rmoveto
          -67 -47 45 66 73 callsubr
          hvcurveto
          endchar
        </CharString>
        <CharString name="dvG_DH_YA">
          1047 1290 213 3 callgsubr
          -687 218 callsubr
          hlineto
          -101 callgsubr
          100 vlineto
          -2 -11 -1 -12 -13 vvcurveto
          -8 callsubr
          -126 112 -57 147 99 77 38 64 48 vhcurveto
          188 callgsubr
          vlineto
          endchar
        </CharString>
        <CharString name="dvG_GA">
          676 1235 hmoveto
          18 callsubr
          -1350 -99 callsubr
          343 -93 callsubr
          126 -609 vlineto
          endchar
        </CharString>
        <CharString name="dvG_GHA">
          551 812 101 callgsubr
          32 51 hvcurveto
          39 159 callsubr
          -1225 -99 callsubr
          119 -47 vlineto
          -83 42 -41 53 -14 vhcurveto
          -3 vlineto
          -55 -16 -52 -50 -78 vvcurveto
          -121 97 -62 119 75 63 27 50 41 vhcurveto
          -171 -65 callgsubr
        </CharString>
        <CharString name="dvG_JA">
          720 1376 -75 callsubr
          -1393 -99 callsubr
          670 255 callsubr
          -159 vlineto
          -91 callgsubr
          30 115 129 callsubr
          endchar
        </CharString>
        <CharString name="dvG_LA">
          773 1100 30 rmoveto
          -62 callgsubr
          -1446 -99 callsubr
          630 -91 vlineto
          -65 -15 -38 -43 -22 -50 rrcurveto
          -3 hlineto
          -78 callsubr
          -71 -43 -44 -64 -6 -12 1 1 -9 vhcurveto
          -137 vlineto
          -1 14 12 0 8 hhcurveto
          endchar
        </CharString>
        <CharString name="dvG_MA">
          711 1111 465 18 callgsubr
          -348 -415 -94 callgsubr
          604 415 -83 callgsubr
          -1384 -99 callsubr
          385 149 callgsubr
        </CharString>
        <CharString name="dvG_NA">
          684 692 100 callsubr
          -1358 -99 callsubr
          635 206 callgsubr
          -96 callsubr
          207 callsubr
          -32 callsubr
          hlineto
          endchar
        </CharString>
        <CharString name="dvG_NNA">
          745 792 277 rmoveto
          -57 callgsubr
          610 252 callsubr
          -1419 -99 callsubr
          119 166 callsubr
        </CharString>
        <CharString name="dvG_N_YA">
          1136 692 247 rmoveto
          -22 callsubr
          -1810 -99 callsubr
          785 241 callgsubr
          -300 hlineto
          3 callsubr
          -143 -136 66 callsubr
          121 hlineto
          -153 21 93 -95 151 -29 callsubr
        </CharString>
        <CharString name="dvG_R">
          -93 610 374 rmoveto
          -413 -394 rlineto
          181 hlineto
          232 233 rlineto
          396 vmoveto
          131 -627 -27 callgsubr
          vlineto
          endchar
        </CharString>
        <CharString name="dvG_RA">
          175 734 132 callsubr
          -848 -27 callgsubr
          126 -266 vlineto
          -380 -363 rlineto
          181 hlineto
          202 203 rlineto
          -183 vlineto
          endchar
        </CharString>
        <CharString name="dvG_R_YA">
          614 856 213 rmoveto
          -82 callgsubr
          -1287 -27 callgsubr
          262 -5 callgsubr
          vvcurveto
          -16 1 -15 1 -14 vhcurveto
          -356 -339 rlineto
          181 hlineto
          215 216 rlineto
          -72 44 78 -42 107 hhcurveto
          87 -8 callgsubr
        </CharString>
        <CharString name="dvG_SA">
          685 933 543 24 callsubr
          -1358 -99 callsubr
          325 -66 vlineto
          -31 callgsubr
          372 276 callgsubr
        </CharString>
        <CharString name="dvG_VA">
          526 818 188 -79 callsubr
          -1199 218 callsubr
          hlineto
          -101 callgsubr
          139 callsubr
        </CharString>
        <CharString name="dvG_YA">
          614 856 213 rmoveto
          -82 callgsubr
          -1287 -99 callsubr
          262 16 callgsubr
          endchar
        </CharString>
        <CharString name="dvGx">
          -93 563 -75 callsubr
          -580 -99 callsubr
          vlineto
          -113 -591 -39 callgsubr
        </CharString>
        <CharString name="dvGxA">
          175 734 hmoveto
          18 callsubr
          -849 -99 callsubr
          126 -609 vlineto
          -239 18 -39 callgsubr
        </CharString>
        <CharString name="dvGx_R">
          -93 610 374 rmoveto
          -413 -394 rlineto
          181 hlineto
          232 233 rlineto
          396 vmoveto
          131 -627 -27 callgsubr
          vlineto
          -269 -515 -18 callsubr
          endchar
        </CharString>
        <CharString name="dvGx_RA">
          175 734 132 callsubr
          -848 -27 callgsubr
          126 -266 vlineto
          -380 -363 rlineto
          181 hlineto
          202 203 rlineto
          -183 vlineto
          -398 94 -18 callsubr
          endchar
        </CharString>
        <CharString name="dvH">
          -54 542 77 -86 callgsubr
          -619 -131 341 -69 -80 hlineto
          -101 -61 -51 -77 -51 25 -39 43 -26 hvcurveto
          34 callsubr
          -26 -469 -59 callgsubr
          endchar
        </CharString>
        <CharString name="dvHA">
          -54 542 77 -86 callgsubr
          -619 -131 341 -69 -80 hlineto
          -101 -61 -51 -77 -51 25 -39 43 -26 hvcurveto
          88 callsubr
        </CharString>
        <CharString name="dvHA_mU">
          -54 342 -361 rmoveto
          144 91 71 120 123 -77 70 -155 -77 -55 34 66 57 39 36 53 59 30 -41 -49 hvcurveto
          148 hlineto
          113 -69 101 -164 205 callsubr
          vhcurveto
          -17 9 -10 15 19 vvcurveto
          36 29 12 33 vhcurveto
          174 181 128 131 -619 -131 341 204 callsubr
          -51 24 -38 42 -26 hvcurveto
          -55 -36 -34 -59 -76 vvcurveto
          -144 104 -82 182 67 31 -27 -44 -41 -37 -26 -62 -67 -50 29 66 1 vhcurveto
          -139 hlineto
          -148 -2 121 -70 134 hhcurveto
          endchar
        </CharString>
        <CharString name="dvHA_mUU">
          -54 323 -232 rmoveto
          -1 -10 -9 0 -8 hhcurveto
          -40 -36 21 43 48 41 22 48 94 46 -64 -114 hvcurveto
          -63 127 vlineto
          1 19 1 18 20 vvcurveto
          153 -60 153 -206 vhcurveto
          0 vlineto
          -59 1 -40 35 64 vvcurveto
          57 39 36 53 59 32 -41 -54 -2 vhcurveto
          148 hlineto
          116 3 -72 103 -164 hhcurveto
          283 callsubr
          36 29 12 33 vhcurveto
          174 181 128 131 -619 -131 341 204 callsubr
          -50 24 -39 42 -26 hvcurveto
          -55 -35 -34 -58 -75 vvcurveto
          -73 30 -57 55 -36 vhcurveto
          -32 -32 -18 -45 -54 vvcurveto
          -120 88 -57 103 vhcurveto
          38 hlineto
          endchar
        </CharString>
        <CharString name="dvHA_mvR">
          38 422 -257 rmoveto
          104 vlineto
          -132 -110 69 139 112 65 78 129 81 42 -13 -37 20 hvcurveto
          1 -20 -19 1 -24 hhcurveto
          -110 -61 -54 -84 -103 86 -38 81 33 28 3 10 28 hvcurveto
          92 vlineto
          -6 -16 -26 -5 -28 hhcurveto
          -37 -35 14 37 30 21 23 44 hvcurveto
          167 hlineto
          133 -4 -83 97 -173 235 callgsubr
          316 181 88 131 -711 -131 491 -72 -233 244 callsubr
          -199 153 -125 213 7 vhcurveto
          endchar
        </CharString>
        <CharString name="dvH_LA">
          70 377 -245 rmoveto
          100 vlineto
          -101 -100 68 132 114 67 80 131 81 46 -34 -42 21 hvcurveto
          -21 -12 -14 -17 -8 -20 rrcurveto
          -2 hlineto
          34 -16 -30 28 -52 hhcurveto
          -68 -59 -41 -90 -82 50 -59 95 4 7 0 1 8 hvcurveto
          79 vlineto
          -1 -6 -5 0 -4 hhcurveto
          -34 -21 22 37 31 17 20 27 29 16 -24 -34 hvcurveto
          -11 84 11 vlineto
          34 17 24 29 26 18 -21 -30 -37 -21 -22 -34 -5 -4 0 1 -5 vhcurveto
          -79 vlineto
          -1 8 6 0 5 hhcurveto
          95 50 59 82 69 -36 41 -47 15 hvcurveto
          97 -24 -82 69 -146 235 callgsubr
          320 181 116 131 -743 -131 493 -72 -235 244 callsubr
          -191 145 -120 176 6 vhcurveto
          endchar
        </CharString>
        <CharString name="dvH_MA">
          696 238 380 rmoveto
          36 29 12 33 vhcurveto
          174 181 347 -144 -64 hlineto
          -97 -84 -41 -84 -31 hvcurveto
          -236 278 callsubr
          510 -186 68 callgsubr
          -1369 94 callsubr
          57 hvcurveto
          229 hlineto
          -95 20 80 -60 114 40 callsubr
        </CharString>
        <CharString name="dvH_NA">
          673 238 380 rmoveto
          36 29 12 33 vhcurveto
          174 181 595 234 callsubr
          hlineto
          -110 -95 -51 -105 -25 hvcurveto
          -232 278 callsubr
          437 -97 6 callgsubr
          -1341 94 callsubr
          59 hvcurveto
          233 hlineto
          -94 29 88 -53 98 -4 callgsubr
        </CharString>
        <CharString name="dvH_NNA">
          65 378 12 rmoveto
          -24 -14 19 28 hvcurveto
          185 vlineto
          1 12 12 0 14 hhcurveto
          13 13 0 -1 11 hvcurveto
          -185 vlineto
          -28 -14 -19 -23 vhcurveto
          -9 -257 rmoveto
          106 vlineto
          -93 1 -93 61 132 vvcurveto
          75 11 59 57 32 vhcurveto
          -153 vlineto
          -74 42 -58 84 85 42 56 76 vhcurveto
          150 vlineto
          54 -33 8 -63 -82 vvcurveto
          -117 113 117 vlineto
          169 -78 137 -227 -37 -34 -4 -7 -32 vhcurveto
          -24 7 -16 18 23 vvcurveto
          33 27 12 32 vhcurveto
          330 181 103 131 -740 -131 504 -72 -246 hlineto
          -100 -59 -49 -74 -56 31 -42 54 -25 hvcurveto
          -72 -48 -39 -80 -103 280 callgsubr
        </CharString>
        <CharString name="dvH_R">
          10 callsubr
          -29 -461 -59 callgsubr
          endchar
        </CharString>
        <CharString name="dvH_RA">
          10 callsubr
          endchar
        </CharString>
        <CharString name="dvH_VA">
          18 444 -5 rmoveto
          -37 -25 24 38 37 27 24 35 hvcurveto
          42 -1 19 -30 -29 vvcurveto
          -2 vlineto
          -30 -19 -31 -42 vhcurveto
          -75 -240 rmoveto
          -3 106 rlineto
          -89 1 -91 61 132 vvcurveto
          111 67 71 111 77 49 -35 -54 12 vhcurveto
          25 -20 -30 16 -40 hhcurveto
          -80 -57 -51 -81 1 hvcurveto
          -74 51 -60 85 44 33 20 29 19 vhcurveto
          -107 113 220 vlineto
          143 -86 118 -189 -27 -27 -3 -6 -26 vhcurveto
          -23 8 -12 17 21 vvcurveto
          33 27 12 32 vhcurveto
          278 181 100 131 -685 -131 450 -72 -192 hlineto
          -100 -59 -49 -74 -55 32 -43 53 -24 hvcurveto
          -67 -48 -44 -79 -105 280 callgsubr
        </CharString>
        <CharString name="dvH_YA">
          258 561 -4 rmoveto
          -55 -30 29 34 -10 hvcurveto
          54 12 46 38 76 vvcurveto
          107 -87 54 -135 -29 -28 -3 -6 -26 vhcurveto
          -21 10 -12 16 20 vvcurveto
          33 28 12 31 vhcurveto
          247 181 139 -472 hlineto
          -75 -29 -66 -83 vhcurveto
          253 -153 rmoveto
          766 100 131 -931 -131 415 -72 -159 vlineto
          -101 -59 -49 -74 -53 30 -42 50 -25 hvcurveto
          -67 -47 -39 -76 -97 vvcurveto
          -183 142 -116 175 4 vhcurveto
          108 vlineto
          -94 2 -88 59 121 vvcurveto
          98 59 65 96 52 39 -18 -41 -38 -27 -20 -67 vhcurveto
          -7 hlineto
          -1 -9 0 -10 -9 vvcurveto
          -108 67 -89 132 67 47 24 40 31 vhcurveto
          -111 vlineto
          endchar
        </CharString>
        <CharString name="dvI">
          -61 600 -75 callsubr
          -622 36 callsubr
          118 hlineto
          82 callgsubr
          hlineto
          endchar
        </CharString>
        <CharString name="dvII">
          -61 230 34 rmoveto
          82 callgsubr
          131 131 -135 66 hlineto
          174 callgsubr
          -64 -341 36 callsubr
          hlineto
          endchar
        </CharString>
        <CharString name="dvII_Anusvara">
          -61 230 34 rmoveto
          82 callgsubr
          131 131 -135 75 hlineto
          65 33 42 58 56 30 -37 -39 3 vhcurveto
          125 hlineto
          126 3 -83 71 -130 hhcurveto
          -169 -65 -119 -109 hvcurveto
          -75 -348 36 callsubr
          hlineto
          375 912 14 callsubr
        </CharString>
        <CharString name="dvJ">
          -89 705 354 rmoveto
          134 -352 -159 vlineto
          -91 callgsubr
          30 vlineto
          198 255 -83 callgsubr
          -722 256 callsubr
        </CharString>
        <CharString name="dvJA">
          221 877 -75 callsubr
          -894 -131 639 255 callsubr
          -159 vlineto
          -91 callgsubr
          30 115 129 callsubr
          endchar
        </CharString>
        <CharString name="dvJH">
          -78 692 -75 callsubr
          -709 -89 callgsubr
          184 118 -413 147 callsubr
          hlineto
          endchar
        </CharString>
        <CharString name="dvJHA">
          230 279 333 rmoveto
          8 callgsubr
          165 -276 hlineto
          154 -333 rmoveto
          18 callsubr
          -903 -89 callgsubr
          126 -215 hlineto
          endchar
        </CharString>
        <CharString name="dvJH_MA">
          759 1159 465 18 callgsubr
          -348 -415 -94 callgsubr
          -532 139 rmoveto
          8 callgsubr
          415 -144 -64 hlineto
          -100 -86 -43 -89 -29 hvcurveto
          810 276 -83 callgsubr
          -1432 -89 callgsubr
          92 hlineto
          -95 20 80 -59 114 40 callsubr
        </CharString>
        <CharString name="dvJH_NA">
          726 279 333 rmoveto
          8 callgsubr
          659 234 callsubr
          hlineto
          -113 -96 -53 -110 -23 hvcurveto
          136 -50 6 callgsubr
          -1400 -89 callgsubr
          95 hlineto
          -93 28 88 -53 98 -4 callgsubr
        </CharString>
        <CharString name="dvJH_R">
          -78 750 -75 callsubr
          -767 -89 callgsubr
          238 hlineto
          -302 -329 rlineto
          158 hlineto
          148 180 rlineto
          267 -471 vlineto
          8 callgsubr
          hlineto
          endchar
        </CharString>
        <CharString name="dvJH_RA">
          313 279 333 rmoveto
          8 callgsubr
          248 -276 hlineto
          155 -333 rmoveto
          70 callsubr
          -986 -89 callgsubr
          214 -22 hlineto
          -278 -307 rlineto
          158 hlineto
          120 142 rlineto
          -28 vlineto
          endchar
        </CharString>
        <CharString name="dvJH_YA">
          655 279 333 rmoveto
          8 callgsubr
          285 -45 hlineto
          56 callgsubr
          -2 -20 -2 -20 -20 vvcurveto
          -11 0 -10 1 -10 vhcurveto
          304 -120 rmoveto
          -82 callgsubr
          -1328 -89 callgsubr
          116 hlineto
          -84 41 82 -49 116 hhcurveto
          87 -8 callgsubr
        </CharString>
        <CharString name="dvJ_BA">
          599 879 171 rmoveto
          -75 -64 50 83 21 4 18 7 17 hvcurveto
          214 -161 rlineto
          -17 -22 -29 -11 -35 hhcurveto
          278 -171 rmoveto
          18 callsubr
          -1272 -131 1023 103 callgsubr
          -63 -55 -19 -34 -42 hvcurveto
          -333 -159 hlineto
          -91 callgsubr
          30 101 vlineto
          -3 -16 -2 -17 -17 vvcurveto
          -145 259 callsubr
          vhcurveto
          304 callgsubr
          441 22 callsubr
          endchar
        </CharString>
        <CharString name="dvJ_DA">
          527 1182 261 callsubr
          -1200 -131 928 -79 -38 hlineto
          -63 -57 -14 -28 -44 hvcurveto
          -356 -159 hlineto
          -91 callgsubr
          32 107 vlineto
          -4 -20 -3 -21 -23 vvcurveto
          -153 -19 callsubr
        </CharString>
        <CharString name="dvJ_DDA">
          458 1115 -75 callsubr
          -1132 -131 868 -74 -71 vlineto
          -56 -52 -15 -32 -34 hvcurveto
          -285 -159 hlineto
          -91 callgsubr
          30 92 vlineto
          -111 17 108 -21 71 -34 callgsubr
        </CharString>
        <CharString name="dvJ_JA">
          787 1443 -75 callsubr
          -1460 -131 1205 255 callsubr
          -159 vlineto
          228 callsubr
          -46 -26 35 57 vhcurveto
          159 -423 -159 vlineto
          -91 callgsubr
          30 111 -30 179 callsubr
          115 129 callsubr
          endchar
        </CharString>
        <CharString name="dvJ_JHA">
          779 828 333 rmoveto
          8 callgsubr
          165 -276 hlineto
          154 -333 rmoveto
          18 callsubr
          -1452 -131 883 -72 -73 vlineto
          -57 -52 -15 -34 -34 hvcurveto
          -297 -159 hlineto
          -91 callgsubr
          30 104 vlineto
          13 -91 82 -35 73 -4 rrcurveto
          -2 24 19 0 20 hhcurveto
          60 27 -25 -39 -32 -22 -26 -47 -52 -31 28 41 -3 hvcurveto
          -141 -254 148 118 hlineto
          -17 18 41 -31 70 hhcurveto
          105 59 65 87 31 -6 26 -11 21 hvcurveto
          126 -215 hlineto
          endchar
        </CharString>
        <CharString name="dvJ_J_NYA">
          747 1305 hmoveto
          18 callsubr
          -1420 -131 1167 -122 -797 -158 vlineto
          228 callsubr
          -46 -26 35 57 vhcurveto
          158 -158 -163 303 callgsubr
          140 86 93 131 vhcurveto
          38 319 vlineto
          51 51 -30 -63 -48 -29 -40 -58 -54 -40 34 53 -6 hvcurveto
          -147 -285 154 125 hlineto
          -34 32 50 -22 60 hhcurveto
          101 80 68 108 61 -24 44 -36 29 hvcurveto
          139 -362 hlineto
          endchar
        </CharString>
        <CharString name="dvJ_J_VA">
          1150 1442 188 -79 callsubr
          -1823 -131 1572 12 callsubr
          -58 -49 -17 -30 -37 hvcurveto
          -336 -159 hlineto
          228 callsubr
          -46 -26 35 57 vhcurveto
          159 -423 -159 vlineto
          -91 callgsubr
          30 111 -30 179 callsubr
          106 vlineto
          -3 -16 -1 -17 -18 vvcurveto
          -138 -48 callgsubr
        </CharString>
        <CharString name="dvJ_J_YA">
          1241 1483 213 rmoveto
          -93 -52 55 77 -4 hvcurveto
          108 19 54 74 97 -39 callsubr
          -1914 -131 1358 -45 vlineto
          -71 -35 -43 -113 vhcurveto
          -274 -121 hlineto
          -57 -25 -35 -47 -45 -26 35 57 vhcurveto
          121 -423 -121 vlineto
          228 callsubr
          -46 -26 35 57 vhcurveto
          121 -158 -126 303 callgsubr
          137 85 89 127 4 vhcurveto
          111 hlineto
          -127 3 78 -89 148 hhcurveto
          303 callsubr
          hvcurveto
          38 hlineto
          28 24 0 1 20 hvcurveto
          -146 21 93 -92 152 -29 callsubr
        </CharString>
        <CharString name="dvJ_KA">
          883 1123 hmoveto
          -95 callgsubr
          -1556 -131 989 38 callgsubr
          -54 -45 -15 -28 -34 hvcurveto
          -336 -159 hlineto
          -91 callgsubr
          30 108 vlineto
          -3 -18 -2 -18 -20 vvcurveto
          187 callsubr
          vlineto
          -102 35 callgsubr
          endchar
        </CharString>
        <CharString name="dvJ_MA">
          766 1166 477 rmoveto
          -129 132 129 hlineto
          -348 -403 rmoveto
          -40 -31 26 45 45 36 27 49 hvcurveto
          58 -62 hlineto
          -47 -23 -34 -49 vhcurveto
          604 403 -83 callgsubr
          -1439 -131 907 -132 -537 -148 vlineto
          228 callsubr
          -46 -26 35 57 vhcurveto
          148 -158 -153 303 callgsubr
          140 86 93 131 vhcurveto
          28 114 vlineto
          -11 -24 -6 -28 -33 vvcurveto
          -117 87 -76 130 142 74 85 137 vhcurveto
          53 129 -349 -65 callgsubr
        </CharString>
        <CharString name="dvJ_NA">
          748 746 275 rmoveto
          49 35 34 49 49 35 -34 -48 -48 -35 -34 -49 -50 -34 34 47 vhcurveto
          648 334 -83 callgsubr
          -1411 -131 1156 -121 -786 -159 vlineto
          -91 callgsubr
          30 110 vlineto
          -8 -23 -5 -27 -30 vvcurveto
          65 callgsubr
          67 126 43 -11 34 -16 27 vhcurveto
          128 -358 115 callgsubr
          endchar
        </CharString>
        <CharString name="dvJ_NY">
          -94 714 -75 callsubr
          -731 -131 vlineto
          731 -232 rmoveto
          125 -470 -125 39 vlineto
          48 callgsubr
          endchar
        </CharString>
        <CharString name="dvJ_NYA">
          204 762 hmoveto
          18 callsubr
          -877 -131 624 -107 -363 -125 39 vlineto
          48 callgsubr
          137 -377 hlineto
          endchar
        </CharString>
        <CharString name="dvJ_NY_YA">
          683 925 213 rmoveto
          -88 -45 48 68 -13 hvcurveto
          109 25 50 79 102 -39 callsubr
          -1356 -131 800 -45 vlineto
          -61 -17 -44 -49 -21 vhcurveto
          41 -37 -60 23 -87 hhcurveto
          -289 -125 39 hlineto
          48 callgsubr
          61 hlineto
          47 33 -20 -38 15 hvcurveto
          -145 22 86 -92 157 -29 callsubr
        </CharString>
        <CharString name="dvJ_R">
          74 callsubr
          endchar
        </CharString>
        <CharString name="dvJ_RA">
          54 callgsubr
          endchar
        </CharString>
        <CharString name="dvJ_TA">
          625 1281 -75 callsubr
          -1298 -131 1043 -117 -673 -163 vlineto
          228 callsubr
          -46 -26 35 57 vhcurveto
          163 -158 -168 303 callgsubr
          140 86 93 131 vhcurveto
          33 139 vlineto
          -22 -33 -13 -41 -52 vvcurveto
          -153 116 -77 142 vhcurveto
          43 124 -18 hlineto
          -84 -42 46 71 75 54 40 79 hvcurveto
          125 87 callgsubr
          endchar
        </CharString>
        <CharString name="dvJ_TTA">
          560 1216 -75 callsubr
          -1233 -131 906 -76 vlineto
          -69 -1 -58 -16 -45 -28 rrcurveto
          -364 -159 hlineto
          -91 callgsubr
          30 109 vlineto
          -7 -24 -3 -26 -27 vvcurveto
          -155 -87 callgsubr
          endchar
        </CharString>
        <CharString name="dvJ_VA">
          584 876 188 -79 callsubr
          -1257 -131 1006 12 callsubr
          -58 -49 -17 -30 -37 hvcurveto
          -336 -159 hlineto
          -91 callgsubr
          30 106 vlineto
          -3 -16 -1 -17 -18 vvcurveto
          -138 -48 callgsubr
        </CharString>
        <CharString name="dvJ_YA">
          675 917 213 rmoveto
          -92 -53 55 77 -4 hvcurveto
          108 18 54 75 97 vvcurveto
          74 97 callsubr
          -92 -59 194 callgsubr
          -1348 -131 792 -45 vlineto
          -71 -35 -43 -113 vhcurveto
          -274 -121 hlineto
          228 callsubr
          -46 -26 35 57 vhcurveto
          121 -158 -126 303 callgsubr
          303 callsubr
          vhcurveto
          38 hlineto
          28 24 0 1 20 hvcurveto
          -146 21 93 -92 152 hhcurveto
          88 267 callsubr
          hvcurveto
          -157 -65 callgsubr
        </CharString>
        <CharString name="dvJx">
          -89 705 354 rmoveto
          134 -352 -159 vlineto
          -91 callgsubr
          30 vlineto
          198 255 -83 callgsubr
          -722 -131 vlineto
          390 58 callsubr
          endchar
        </CharString>
        <CharString name="dvJxA">
          221 877 -75 callsubr
          -894 -131 639 255 callsubr
          -159 vlineto
          -91 callgsubr
          30 115 129 callsubr
          -406 58 callsubr
          endchar
        </CharString>
        <CharString name="dvJx_JxA">
          787 373 -49 rmoveto
          -100 callsubr
          566 hmoveto
          -100 callsubr
          504 658 -83 callgsubr
          -1460 -131 1205 255 callsubr
          -159 vlineto
          228 callsubr
          -46 -26 35 57 vhcurveto
          159 -423 -159 vlineto
          -91 callgsubr
          30 111 -30 179 callsubr
          115 129 callsubr
          endchar
        </CharString>
        <CharString name="dvJx_R">
          74 callsubr
          -51 84 -18 callsubr
          endchar
        </CharString>
        <CharString name="dvJx_RA">
          54 callgsubr
          -554 -574 -18 callsubr
          endchar
        </CharString>
        <CharString name="dvJx_YA">
          675 1331 -75 callsubr
          -1348 -131 792 -45 vlineto
          -71 -35 -43 -113 vhcurveto
          -274 -121 hlineto
          228 callsubr
          -46 -26 35 57 vhcurveto
          121 -158 -126 303 callgsubr
          303 callsubr
          vhcurveto
          38 hlineto
          28 24 0 1 20 hvcurveto
          -146 21 93 -92 152 hhcurveto
          88 267 callsubr
          hvcurveto
          -157 -68 callgsubr
          -861 58 callsubr
          544 262 rmoveto
          -92 -53 55 77 -4 hvcurveto
          108 18 54 75 97 vvcurveto
          74 290 callsubr
        </CharString>
        <CharString name="dvK">
          53 callsubr
          -102 35 callgsubr
          endchar
        </CharString>
        <CharString name="dvKA">
          326 566 hmoveto
          -95 callgsubr
          -999 -107 callgsubr
          vlineto
          -102 35 callgsubr
          endchar
        </CharString>
        <CharString name="dvKH">
          28 callsubr
          169 -293 -74 callsubr
          endchar
        </CharString>
        <CharString name="dvKHA">
          321 640 231 34 callgsubr
          -35 -120 98 callgsubr
          -254 18 -41 callgsubr
          endchar
        </CharString>
        <CharString name="dvKH_KHA">
          988 553 316 -74 callsubr
          754 -85 34 callgsubr
          239 -231 rmoveto
          18 callsubr
          -1661 -80 callsubr
          44 40 9 18 33 hvcurveto
          -93 43 90 -50 121 hhcurveto
          106 76 52 68 45 hvcurveto
          -1 10 277 callgsubr
          -1039 109 callgsubr
          508 -93 vlineto
          -56 -17 -36 -33 -20 vhcurveto
          72 -31 -72 45 -96 hhcurveto
          -132 -96 -15 callgsubr
          667 hmoveto
          -84 -45 55 74 hvcurveto
          36 vlineto
          94 13 67 71 133 vvcurveto
          98 340 -135 vlineto
          30 -25 -38 305 callgsubr
          -80 -86 -118 -56 17 -49 29 -36 hvcurveto
          -27 -19 -33 -22 -56 hhcurveto
          endchar
        </CharString>
        <CharString name="dvKH_MA">
          891 1290 465 18 callgsubr
          -737 -293 -74 callsubr
          390 -122 -21 callsubr
        </CharString>
        <CharString name="dvKH_NA">
          866 874 283 128 callgsubr
          -51 -34 33 48 vhcurveto
          -321 33 143 callsubr
          883 -113 -297 vlineto
          -63 -55 -17 -34 -40 hvcurveto
          49 -37 -62 27 -78 hhcurveto
          -131 -89 -15 callgsubr
          1171 480 -83 callgsubr
          -1539 -80 callsubr
          57 49 15 30 36 hvcurveto
          -55 39 65 -30 74 hhcurveto
          112 91 -61 callgsubr
          hvcurveto
          207 callsubr
          115 callgsubr
          endchar
        </CharString>
        <CharString name="dvKH_R">
          11 callgsubr
          169 -293 -74 callsubr
          endchar
        </CharString>
        <CharString name="dvKH_RA">
          59 callsubr
          268 366 34 callgsubr
          -289 -102 -41 callgsubr
          endchar
        </CharString>
        <CharString name="dvKH_SHA">
          71 callsubr
          202 187 -6 callsubr
        </CharString>
        <CharString name="dvKH_TA">
          728 553 316 -25 callsubr
        </CharString>
        <CharString name="dvKH_VA">
          694 1253 132 callsubr
          -1367 -80 callsubr
          52 45 13 24 34 hvcurveto
          -52 35 56 -32 79 hhcurveto
          67 54 26 45 34 hvcurveto
          -133 vlineto
          -546 316 -74 callsubr
          434 -128 153 callsubr
          -636 -59 rmoveto
          -77 callsubr
          715 260 callsubr
          -69 -52 -24 -40 -35 hvcurveto
          32 -37 -53 18 -63 hhcurveto
          -131 -89 -15 callgsubr
          endchar
        </CharString>
        <CharString name="dvKH_YA">
          786 553 316 -37 callgsubr
        </CharString>
        <CharString name="dvKHx">
          28 callsubr
          32 -763 rmoveto
          -100 callsubr
          137 470 -74 callsubr
          endchar
        </CharString>
        <CharString name="dvKHxA">
          321 605 111 98 callgsubr
          -189 -265 rmoveto
          -100 callsubr
          224 385 34 callgsubr
          -289 -102 -41 callgsubr
          endchar
        </CharString>
        <CharString name="dvKHx_MA">
          891 416 -154 rmoveto
          -100 callsubr
          137 470 -74 callsubr
          737 149 18 callgsubr
          -347 -415 -21 callsubr
        </CharString>
        <CharString name="dvKHx_R">
          11 callgsubr
          -215 -680 -18 callsubr
          384 387 -74 callsubr
          endchar
        </CharString>
        <CharString name="dvKHx_RA">
          59 callsubr
          -203 64 -18 callsubr
          471 302 34 callgsubr
          -289 -102 -41 callgsubr
          endchar
        </CharString>
        <CharString name="dvKHx_SA">
          863 122 callsubr
          -202 -187 rmoveto
          -84 -46 55 74 hvcurveto
          36 vlineto
          96 12 67 71 134 vvcurveto
          98 569 -66 vlineto
          -71 -29 -52 -90 -7 vhcurveto
          69 -33 -72 39 -94 68 callsubr
          759 414 13 callsubr
          409 66 -83 callgsubr
          -1536 -131 243 -76 vlineto
          172 callsubr
          41 37 8 15 32 hvcurveto
          -83 26 71 -58 114 hhcurveto
          134 78 179 callgsubr
          -65 callgsubr
        </CharString>
        <CharString name="dvKHx_SHA">
          71 callsubr
          92 -288 rmoveto
          52 -40 41 -51 -51 -40 -41 -52 -50 40 -40 51 51 40 40 50 vhcurveto
          110 475 -6 callsubr
        </CharString>
        <CharString name="dvKHx_TA">
          728 443 -159 rmoveto
          52 -40 41 -51 -51 -40 -41 -52 -50 40 -40 51 51 40 40 50 vhcurveto
          110 475 -25 callsubr
        </CharString>
        <CharString name="dvKHx_VA">
          694 122 callsubr
          434 -128 153 callsubr
          266 -188 rmoveto
          70 callsubr
          -1367 -80 callsubr
          52 45 13 24 34 hvcurveto
          -52 35 56 -32 79 hhcurveto
          67 54 26 45 34 hvcurveto
          -133 vlineto
          -748 109 callgsubr
          715 260 callsubr
          -69 -52 -24 -40 -35 hvcurveto
          32 -37 -53 18 -63 hhcurveto
          -131 -89 -15 callgsubr
          endchar
        </CharString>
        <CharString name="dvKHx_YA">
          786 443 -159 rmoveto
          52 -40 41 -51 -51 -40 -41 -52 -50 40 -40 51 51 40 40 50 vhcurveto
          110 475 -37 callgsubr
        </CharString>
        <CharString name="dvK_CA">
          696 970 213 rmoveto
          -59 -1 -46 31 60 vvcurveto
          56 41 34 54 vhcurveto
          42 123 -281 hlineto
          -76 -50 -24 -40 -29 hvcurveto
          157 530 -241 vlineto
          -91 -45 -63 -81 -1 vhcurveto
          -657 -17 -104 callsubr
          1039 413 -83 callgsubr
          -1369 -107 callsubr
          286 vlineto
          58 29 49 78 vhcurveto
          108 hlineto
          -41 -29 -23 -46 -56 vvcurveto
          -121 90 -58 115 74 62 27 49 38 vhcurveto
          -159 -65 callgsubr
        </CharString>
        <CharString name="dvK_DA">
          666 221 callgsubr
          485 -79 -38 hlineto
          -68 -60 -17 -32 -46 hvcurveto
          32 -33 -44 18 -55 205 callgsubr
          -253 -267 -104 callsubr
          1009 413 -83 callgsubr
          -1339 -106 callgsubr
          27 50 64 58 32 -43 -56 vhcurveto
          0 vlineto
          -2 0 -2 -2 vvcurveto
          -153 101 -74 113 55 44 18 31 28 vhcurveto
          -147 154 314 -145 vlineto
          -59 -42 -33 -49 -60 -38 39 60 68 50 39 72 vhcurveto
          179 214 hlineto
          endchar
        </CharString>
        <CharString name="dvK_JA">
          914 313 35 callgsubr
          661 41 rmoveto
          -46 -25 35 57 hvcurveto
          9 vlineto
          98 -67 95 -129 135 callsubr
          596 372 -83 callgsubr
          -1587 -106 callgsubr
          27 50 64 58 32 134 callgsubr
          70 callgsubr
        </CharString>
        <CharString name="dvK_KA">
          1021 313 35 callgsubr
          797 284 callgsubr
          -52 -44 -15 -26 -35 hvcurveto
          26 -31 -41 15 -50 205 callgsubr
          146 vlineto
          695 -609 rmoveto
          -95 callgsubr
          -1694 -106 callgsubr
          27 50 64 58 32 -43 -56 vhcurveto
          1 hlineto
          187 callsubr
          vlineto
          -102 35 callgsubr
          endchar
        </CharString>
        <CharString name="dvK_KHA">
          1003 707 523 rmoveto
          -66 -47 -26 -40 -28 hvcurveto
          152 341 -76 vlineto
          -51 -14 -34 -27 -21 vhcurveto
          58 -28 -52 38 -79 hhcurveto
          -394 -327 -104 callsubr
          1248 -196 rmoveto
          18 callsubr
          -1676 -106 callgsubr
          27 50 64 58 32 -43 -56 vhcurveto
          -37 vlineto
          -166 109 -102 173 163 callsubr
          55 38 19 29 25 hvcurveto
          -159 vlineto
          -84 231 rmoveto
          -48 -38 30 58 54 39 31 47 58 218 callgsubr
          -28 -42 -56 vhcurveto
          -288 -102 rmoveto
          -84 -46 55 74 hvcurveto
          36 vlineto
          95 12 67 71 134 vvcurveto
          98 340 -135 vlineto
          30 234 callgsubr
          -113 -79 101 callsubr
          endchar
        </CharString>
        <CharString name="dvK_LA">
          969 1152 410 rmoveto
          -3 hlineto
          -35 callgsubr
          -56 -53 -16 -34 -40 hvcurveto
          31 -30 -40 18 -49 hhcurveto
          -66 302 callsubr
          711 51 callsubr
          -839 -214 -104 callsubr
          253 92 rmoveto
          59 27 50 64 58 32 -43 -56 vhcurveto
          0 vlineto
          -5 0 -5 -5 vvcurveto
          136 callgsubr
          168 169 callsubr
          vhcurveto
          -88 callgsubr
          -62 callgsubr
          -1642 -107 callsubr
          vlineto
          endchar
        </CharString>
        <CharString name="dvK_MA">
          906 159 callgsubr
          -394 -327 -12 callgsubr
        </CharString>
        <CharString name="dvK_NA">
          880 221 callgsubr
          715 234 callsubr
          hlineto
          -50 -47 -11 -21 -39 hvcurveto
          43 -28 -45 24 -67 205 callgsubr
          321 -180 -102 callsubr
          -574 -87 -104 callsubr
          1223 413 -83 callgsubr
          -1553 -106 callgsubr
          27 50 64 56 32 -40 -53 2 vhcurveto
          -1 -7 0 -8 -7 vvcurveto
          -6 callgsubr
        </CharString>
        <CharString name="dvK_NNA">
          915 221 callgsubr
          173 -95 hlineto
          2 -11 -12 1 -13 hhcurveto
          -64 -46 -24 -38 -27 hvcurveto
          -253 -259 -104 callsubr
          648 81 rmoveto
          -57 callgsubr
          610 252 callsubr
          -1588 -106 callgsubr
          27 50 64 42 28 -23 -32 13 vhcurveto
          -111 9 73 -86 139 hhcurveto
          147 74 94 126 hvcurveto
          244 133 -609 -65 callgsubr
        </CharString>
        <CharString name="dvK_PA">
          693 221 callgsubr
          158 -87 hlineto
          1 -6 -7 0 -7 hhcurveto
          -64 -46 -24 -39 -28 hvcurveto
          -253 -264 -104 callsubr
          675 96 rmoveto
          -90 callsubr
          -1367 -106 callgsubr
          26 50 63 40 27 -24 -35 10 vhcurveto
          -106 23 72 -72 120 12 callgsubr
        </CharString>
        <CharString name="dvK_PHA">
          198 callgsubr
          -253 -264 -104 callsubr
          675 96 30 callsubr
          -1684 -106 callgsubr
          27 50 64 41 30 -23 -33 11 vhcurveto
          -108 21 70 -73 118 hhcurveto
          62 46 21 35 31 hvcurveto
          -216 -103 callsubr
          endchar
        </CharString>
        <CharString name="dvK_P_RA">
          693 221 callgsubr
          158 -87 hlineto
          1 -6 -7 0 -7 hhcurveto
          -64 -46 -24 -39 -28 hvcurveto
          -253 -264 -104 callsubr
          675 96 rmoveto
          -90 callsubr
          -1367 -106 callgsubr
          26 50 63 38 27 -22 -33 12 vhcurveto
          19 -89 56 -66 92 -16 -22 callgsubr
        </CharString>
        <CharString name="dvK_R">
          62 566 hmoveto
          288 vlineto
          57 2 27 52 65 hhcurveto
          227 callsubr
          hvcurveto
          159 hlineto
          131 260 callgsubr
          vhcurveto
          148 346 131 -929 230 callgsubr
          -107 59 -82 90 -24 hvcurveto
          27 callsubr
        </CharString>
        <CharString name="dvK_RA">
          326 566 hmoveto
          -32 callgsubr
          -999 230 callgsubr
          -107 59 -82 90 -24 hvcurveto
          27 callsubr
        </CharString>
        <CharString name="dvK_SA">
          874 -34 callsubr
          153 -180 -177 vlineto
          16 32 8 39 43 vvcurveto
          408 66 rmoveto
          131 -1546 -67 callsubr
          372 263 callsubr
          endchar
        </CharString>
        <CharString name="dvK_SHA">
          897 313 35 callgsubr
          394 327 rmoveto
          -66 -47 -26 -40 -28 hvcurveto
          152 393 vlineto
          3 10 7 1 10 hhcurveto
          47 26 -32 -46 -89 -84 -27 -89 hvcurveto
          -16 hlineto
          62 -28 -52 42 -83 hhcurveto
          502 -316 168 callsubr
          -20 227 callgsubr
          39 vlineto
          151 122 73 229 callgsubr
          -93 80 -135 -26 -24 -3 -6 -22 hvcurveto
          -935 293 callgsubr
          hlineto
          -103 callgsubr
          151 105 callgsubr
          27 50 64 58 32 -43 -56 vhcurveto
          -71 vlineto
          -143 90 -91 150 135 87 79 135 vhcurveto
          304 callsubr
          70 callsubr
          188 callsubr
        </CharString>
        <CharString name="dvK_SS">
          -80 226 543 -74 callgsubr
          373 113 -223 hlineto
          28 30 19 37 50 -47 callsubr
          endchar
        </CharString>
        <CharString name="dvK_SSA">
          222 226 543 -74 callgsubr
          311 -343 151 18 callsubr
          -249 -284 -161 hlineto
          28 30 19 37 50 -47 callsubr
          endchar
        </CharString>
        <CharString name="dvK_SS_MA">
          768 821 186 rmoveto
          -40 -31 26 45 45 35 26 311 callsubr
          -595 357 -74 callgsubr
          303 hlineto
          -11 -25 -6 -29 -33 312 callgsubr
          87 141 vhcurveto
          47 130 -328 204 callgsubr
          -820 -131 289 -153 -425 vlineto
          28 30 19 37 50 -47 callsubr
          799 519 rmoveto
          -130 153 130 hlineto
          endchar
        </CharString>
        <CharString name="dvK_SS_M_YA">
          1217 819 178 rmoveto
          -40 -31 26 46 45 36 26 48 -16 callsubr
          -36 -48 vhcurveto
          -593 365 -74 callgsubr
          304 hlineto
          -13 -26 -7 -32 -36 312 callgsubr
          86 142 vhcurveto
          47 119 vlineto
          -148 14 96 -94 158 hhcurveto
          89 267 callsubr
          hvcurveto
          -154 263 callgsubr
          -1271 -131 289 -159 -429 vlineto
          31 31 22 39 53 -47 callsubr
          834 513 rmoveto
          -167 159 280 -54 hlineto
          -67 -32 -38 -81 vhcurveto
          255 -241 rmoveto
          -95 -52 56 76 -2 hvcurveto
          104 14 58 75 101 vvcurveto
          78 146 -240 vlineto
          -92 -60 -68 -99 vhcurveto
          endchar
        </CharString>
        <CharString name="dvK_SS_VA">
          582 226 543 -74 callgsubr
          292 hlineto
          -2 -13 -1 -13 -14 vvcurveto
          -138 84 -103 141 67 54 26 45 34 vhcurveto
          -133 154 70 callsubr
          -641 -131 390 260 callsubr
          -77 -60 -30 -49 -39 hvcurveto
          -188 hlineto
          28 30 19 37 50 -47 callsubr
          505 251 153 callsubr
          endchar
        </CharString>
        <CharString name="dvK_SS_YA">
          666 226 543 -74 callgsubr
          286 hlineto
          -158 5 107 -103 166 hhcurveto
          84 61 28 45 40 hvcurveto
          -155 204 callgsubr
          -721 -131 165 -54 vlineto
          -70 -51 -35 -75 vhcurveto
          -178 hlineto
          31 31 22 39 53 -47 callsubr
          538 276 rmoveto
          -93 -53 58 77 -3 hvcurveto
          115 21 47 83 103 vvcurveto
          54 290 callsubr
        </CharString>
        <CharString name="dvK_S_DDA">
          1141 89 callsubr
          412 -74 -71 vlineto
          -83 -73 -33 -73 -21 hvcurveto
          -189 hlineto
          17 32 8 39 43 vvcurveto
          676 66 -83 callgsubr
          -1815 -56 callgsubr
          134 78 77 119 223 callsubr
          398 vlineto
          -64 38 82 -14 57 -34 callgsubr
        </CharString>
        <CharString name="dvK_S_P_LA">
          1822 89 callsubr
          138 -180 -163 vlineto
          17 32 8 39 43 vvcurveto
          396 -251 48 callsubr
          -336 -105 rmoveto
          223 callsubr
          378 vlineto
          -85 33 73 -55 112 hhcurveto
          45 38 10 18 32 hvcurveto
          -95 32 83 -63 129 hhcurveto
          8 12 0 1 14 hvcurveto
          -88 callgsubr
          -62 callgsubr
          -2494 -56 callgsubr
          134 78 77 119 vhcurveto
          endchar
        </CharString>
        <CharString name="dvK_S_P_RA">
          1230 -34 callsubr
          139 -180 -163 vlineto
          -27 callsubr
          403 -251 rmoveto
          -74 -33 52 74 hvcurveto
          191 214 -200 vlineto
          -64 -36 -53 -71 vhcurveto
          362 317 rmoveto
          131 -1903 -67 callsubr
          378 vlineto
          27 -68 51 -47 77 -14 -22 callgsubr
        </CharString>
        <CharString name="dvK_S_TA">
          1273 -34 callsubr
          552 253 callgsubr
          -80 -74 -20 -43 -52 hvcurveto
          -237 43 callgsubr
          807 66 -83 callgsubr
          -1945 -67 callsubr
          359 vlineto
          -3 -17 -2 -18 -19 -58 callsubr
          endchar
        </CharString>
        <CharString name="dvK_S_TTA">
          1211 -34 callsubr
          418 -76 vlineto
          -107 -2 -82 -38 -48 -64 rrcurveto
          -205 43 callgsubr
          745 66 rmoveto
          131 -1883 -67 callsubr
          355 vlineto
          -1 -7 0 -8 -8 vvcurveto
          -155 -87 callgsubr
          endchar
        </CharString>
        <CharString name="dvK_TA">
          450 1106 -75 callsubr
          -1123 -131 545 -123 -488 -132 130 vlineto
          -26 -32 -16 -43 -55 vvcurveto
          -144 117 -79 141 vhcurveto
          43 124 -17 hlineto
          -85 -42 45 69 73 53 40 81 hvcurveto
          109 -352 151 253 hlineto
          55 32 52 71 58 36 -44 -56 -63 -39 -38 -56 -10 -12 2 1 -6 vhcurveto
          -122 vlineto
          -6 24 23 -3 23 hhcurveto
          124 89 86 146 128 -77 103 -129 -71 -50 -28 -44 -30 hvcurveto
          187 vlineto
          endchar
        </CharString>
        <CharString name="dvK_THA">
          841 313 35 callgsubr
          394 327 rmoveto
          -66 -47 -26 -40 -28 hvcurveto
          152 363 1 vlineto
          3 8 9 2 12 hhcurveto
          37 23 -29 -36 -80 -67 -26 -91 -4 hvcurveto
          51 -29 -52 32 -72 hhcurveto
          693 -523 rmoveto
          606 97 134 -255 265 callsubr
          -88 -70 -105 -105 220 callsubr
          -21 callgsubr
          276 callsubr
          -21 hvcurveto
          -911 293 callgsubr
          hlineto
          -103 callgsubr
          151 105 callgsubr
          27 50 64 44 31 -25 -37 10 vhcurveto
          -158 13 111 -94 159 hhcurveto
          113 74 52 55 30 293 callsubr
        </CharString>
        <CharString name="dvK_TTA">
          700 221 callgsubr
          463 -76 hlineto
          -77 -1 -64 -20 -47 -35 rrcurveto
          34 -32 -45 20 -57 205 callgsubr
          -253 -267 -104 callsubr
          1043 413 -83 callgsubr
          -1373 -106 callgsubr
          27 50 64 57 31 -41 -55 2 vhcurveto
          -1 -8 0 -8 -8 vvcurveto
          -155 -87 callgsubr
          endchar
        </CharString>
        <CharString name="dvK_T_RA">
          767 1171 453 rmoveto
          35 -37 -56 30 -76 hhcurveto
          -67 -57 -18 -34 -42 hvcurveto
          42 -31 -46 23 -55 hhcurveto
          -64 -46 -27 -41 -28 hvcurveto
          146 605 vlineto
          -858 -413 -104 callsubr
          1109 413 -83 callgsubr
          -1439 -106 callgsubr
          29 50 63 55 35 -42 -84 2 vhcurveto
          -2 0 -3 -3 vvcurveto
          146 callsubr
        </CharString>
        <CharString name="dvK_T_VA">
          1094 693 522 rmoveto
          -59 -42 -22 -37 -26 hvcurveto
          146 933 121 callsubr
          -56 -47 -16 -27 -36 hvcurveto
          -184 hlineto
          -77 -71 -18 -40 -51 hvcurveto
          57 -25 -46 31 -57 hhcurveto
          -380 -326 -104 callsubr
          1073 -8 -79 callsubr
          -1767 293 callgsubr
          hlineto
          -103 callgsubr
          151 105 callgsubr
          26 48 63 56 29 -45 -93 -4 vhcurveto
          0 vlineto
          -3 0 -4 -4 95 callsubr
        </CharString>
        <CharString name="dvK_T_YA">
          1175 1006 500 rmoveto
          -74 -66 -18 -38 -48 hvcurveto
          50 -26 -47 28 -59 hhcurveto
          -55 -40 -21 -36 -25 hvcurveto
          144 710 112 callsubr
          -693 -304 -104 callsubr
          1105 17 182 callgsubr
          58 77 105 -39 callsubr
          -1849 -106 callgsubr
          26 48 63 50 35 -40 -84 -4 vhcurveto
          0 vlineto
          -5 0 -5 -6 vvcurveto
          -173 117 -72 143 vhcurveto
          -29 callgsubr
        </CharString>
        <CharString name="dvK_VA">
          722 566 -19 callgsubr
          364 552 rmoveto
          -1396 293 callgsubr
          hlineto
          42 -29 -50 27 -71 hhcurveto
          -133 -79 -95 -138 -137 79 -97 127 74 52 29 45 30 hvcurveto
          137 callsubr
        </CharString>
        <CharString name="dvK_V_YA">
          1186 1006 535 rmoveto
          -76 -62 -22 -36 -43 hvcurveto
          29 -29 -40 17 -50 hhcurveto
          -65 302 callsubr
          720 -53 vlineto
          -64 -18 -46 -56 -19 vhcurveto
          63 -36 -69 45 -101 hhcurveto
          -693 -339 -104 callsubr
          703 -8 75 callgsubr
          -1859 -106 callgsubr
          27 50 64 58 32 -43 -56 vhcurveto
          1 hlineto
          -133 96 -103 168 89 62 36 53 37 vhcurveto
          -44 46 65 -25 83 187 callgsubr
          endchar
        </CharString>
        <CharString name="dvK_YA">
          804 707 -35 callsubr
          -1477 -131 432 -147 vlineto
          42 -29 -50 27 -71 hhcurveto
          -133 -79 -95 -138 -137 79 -97 127 74 52 29 45 30 hvcurveto
          126 callsubr
        </CharString>
        <CharString name="dvKx">
          53 callsubr
          -87 -86 45 callsubr
        </CharString>
        <CharString name="dvKxA">
          326 566 hmoveto
          -95 callgsubr
          -999 -107 callgsubr
          vlineto
          -87 -86 45 callsubr
        </CharString>
        <CharString name="dvKx_BA">
          743 221 callgsubr
          584 -129 hlineto
          37 -37 -54 24 -69 hhcurveto
          -66 -57 -21 -37 -43 hvcurveto
          30 -28 -39 18 -50 205 callgsubr
          735 -463 rmoveto
          18 callsubr
          -1416 -106 callgsubr
          27 50 64 58 32 -43 -56 vhcurveto
          0 vlineto
          -142 3 103 -97 137 309 callgsubr
          -822 -86 138 callsubr
          710 245 -12 callsubr
        </CharString>
        <CharString name="dvKx_KxA">
          1021 328 -86 rmoveto
          -100 callsubr
          695 hmoveto
          -100 callsubr
          -710 282 -104 callsubr
          695 hmoveto
          -105 callsubr
          102 284 callgsubr
          -56 -47 -17 -30 -35 hvcurveto
          30 -28 -38 17 -49 205 callgsubr
          146 vlineto
          695 -609 rmoveto
          -95 callgsubr
          -1694 -106 callgsubr
          27 50 64 58 32 -43 -56 vhcurveto
          1 hlineto
          187 callsubr
          vlineto
          endchar
        </CharString>
        <CharString name="dvKx_MA">
          896 159 callgsubr
          -379 -609 rmoveto
          52 -40 41 -51 -51 -40 -41 -52 -50 40 -40 51 51 40 40 50 vhcurveto
          -15 282 -12 callgsubr
        </CharString>
        <CharString name="dvKx_PHA">
          198 callgsubr
          422 -168 30 callsubr
          -1684 -106 callgsubr
          27 50 64 41 30 -23 -33 11 vhcurveto
          -108 21 70 -73 118 hhcurveto
          62 46 21 35 31 hvcurveto
          -216 -103 callsubr
          -917 -695 45 callsubr
        </CharString>
        <CharString name="dvKx_PHxA">
          1012 221 callgsubr
          168 -88 hlineto
          1 -9 -9 1 -9 hhcurveto
          -66 -47 -24 -39 -28 hvcurveto
          -238 -546 rmoveto
          -100 callsubr
          656 101 rmoveto
          -100 callsubr
          -671 181 -104 callsubr
          676 96 30 callsubr
          -1685 -106 callgsubr
          27 50 64 45 31 -27 -39 9 vhcurveto
          0 vlineto
          -102 23 70 -69 114 hhcurveto
          62 46 21 35 31 hvcurveto
          -216 -103 callsubr
          endchar
        </CharString>
        <CharString name="dvKx_R">
          139 643 hmoveto
          288 vlineto
          57 3 27 52 65 hhcurveto
          57 35 -43 -56 hvcurveto
          160 hlineto
          131 -74 102 -129 281 callsubr
          347 131 -1007 27 callgsubr
        </CharString>
        <CharString name="dvKx_RA">
          404 643 hmoveto
          288 vlineto
          57 3 27 52 65 hhcurveto
          57 35 -43 -56 -60 -38 -36 -51 -9 -10 1 2 -7 hvcurveto
          -123 vlineto
          -6 24 21 -2 23 hhcurveto
          119 88 81 callgsubr
          -129 -67 -48 -27 -43 244 callgsubr
          417 131 -1077 27 callgsubr
        </CharString>
        <CharString name="dvKx_TA">
          750 701 522 rmoveto
          -63 -45 -23 -38 -27 hvcurveto
          148 585 253 callgsubr
          -64 -60 -13 -27 -48 hvcurveto
          45 -31 -51 25 -63 hhcurveto
          -373 -608 138 callsubr
          1093 413 -83 callgsubr
          -1423 -106 callgsubr
          26 48 63 47 36 -37 -71 -1 vhcurveto
          -2 -13 -1 -14 -14 -58 callsubr
          endchar
        </CharString>
</ttFont>
